<?xml version="1.0" encoding="UTF-8"?>
<!DOCTYPE svg PUBLIC "-//W3C//DTD SVG 1.1//EN" "http://www.w3.org/Graphics/SVG/1.1/DTD/svg11.dtd">
<!-- Creator: CorelDRAW X8 -->
<svg xmlns="http://www.w3.org/2000/svg" xml:space="preserve" width="553px" height="221px" version="1.1" style="shape-rendering:geometricPrecision; text-rendering:geometricPrecision; image-rendering:optimizeQuality; fill-rule:evenodd; clip-rule:evenodd"
viewBox="0 0 553 221"
 xmlns:xlink="http://www.w3.org/1999/xlink">
 <defs>
  <style type="text/css">
   <![CDATA[
    .str1 {stroke:#B0CB1F;stroke-width:0.900001}
    .str0 {stroke:#DCCF73;stroke-width:0.900001;stroke-linejoin:round}
    .fil1 {fill:none}
    .fil4 {fill:none;fill-rule:nonzero}
    .fil3 {fill:#DCCF73}
    .fil0 {fill:#B0CB1F}
    .fil2 {fill:#B0CB1F}
   ]]>
  </style>
 </defs>
 <g id="Слой_x0020_1">
  <metadata id="CorelCorpID_0Corel-Layer"/>
  <path class="fil0" d="M274 207c-43,0 -85,0 -127,1l0 -1c-1,1 -2,0 -1,-1 0,0 0,0 0,0 2,-10 0,-42 -10,-50 -35,13 -33,-28 1,-40 3,-2 16,-3 19,0 -1,-2 -1,-4 -2,-7 1,3 1,5 3,7l0 0 -1 0 0 0 0 0c-3,-3 -15,-1 -19,0 -31,12 -36,51 -1,38 6,-2 11,20 11,21 3,19 2,27 1,31 16,-2 110,0 112,0l0 0c9,0 4,0 14,1zm-126 -1l0 -1c-1,0 -2,0 -2,1 0,0 1,0 2,0z"/>
  <path class="fil1" d="M274 207c-5,0 -10,0 -14,0l-113 -1c1,2 0,-35 -3,-39 -2,-3 -4,-9 -8,-12 -27,13 -33,-18 -12,-32 6,-3 11,-8 18,-8 12,-2 15,1 14,1 0,0 -2,-6 -2,-7"/>
  <path class="fil0" d="M154 109c18,-5 38,-7 57,-13 18,-5 47,-14 63,1 -15,-13 -37,-6 -54,-1 -25,7 -43,7 -66,13z"/>
  <path class="fil1" d="M154 109c2,-2 30,-5 36,-7 4,-1 8,-1 14,-2 17,-5 55,-19 70,-3"/>
  <path class="fil0" d="M274 83c-12,1 1,6 -14,5 -1,1 -2,1 -2,2 0,-1 1,-2 1,-3 13,-3 4,-6 15,-4z"/>
  <path class="fil1" d="M274 83c-12,-1 -1,5 -15,5 0,0 -1,1 -1,2"/>
  <path class="fil0" d="M155 111c-5,1 -10,-1 -11,3 -1,-7 8,-4 11,-3z"/>
  <path class="fil1" d="M155 111c-4,0 -4,-1 -7,0 -2,0 -4,0 -4,3"/>
  <path class="fil0" d="M147 206c0,0 6,8 6,11 2,1 -2,3 3,4 -3,0 -3,0 -4,-2 -2,-2 -4,-10 -4,-12l0 1c-1,-1 -1,-1 -1,-2zm6 11c0,0 0,0 0,0 0,0 0,0 0,0z"/>
  <path class="fil1" d="M147 206c0,1 1,1 1,1 0,1 3,9 4,10 0,0 1,1 1,1 0,3 0,3 3,3"/>
  <path class="fil0" d="M274 201c-15,4 -105,1 -122,1l57 -2c0,0 60,2 65,1z"/>
  <path class="fil1" d="M274 201c-1,1 -6,1 -8,1l-114 0"/>
  <path class="fil0" d="M152 202c0,-14 2,-50 -16,-56 0,0 0,0 -1,0 1,0 1,0 1,0 21,5 17,41 16,56z"/>
  <path class="fil1" d="M152 202c1,-15 2,-20 -1,-35 -2,-8 -6,-20 -15,-21 0,0 0,0 -1,0"/>
  <path class="fil0" d="M274 193c0,0 -6,0 -6,0l0 0c-2,0 -108,3 -109,1 0,-1 1,-17 1,-17 -1,-29 -1,-10 -2,-17l0 0c-8,-30 -33,-29 -37,-20 2,-5 6,-8 15,-6 26,7 26,37 26,58 37,0 75,1 112,1zm-153 -53c0,2 0,4 1,6 0,1 0,1 0,1 -1,-2 -1,-5 -1,-7zm1 7c3,4 11,5 14,-1 -1,1 -1,2 -3,3 -5,4 -9,2 -11,-2z"/>
  <path class="fil1" d="M274 193c-2,0 -4,0 -6,0l-107 0c0,-8 0,-25 -2,-33 0,0 0,0 0,0 -5,-23 -34,-35 -38,-18 -2,10 12,11 15,4"/>
  <path class="fil0" d="M274 180c-66,2 -40,2 -105,0 64,-1 39,-1 105,0z"/>
  <path class="fil1" d="M274 180c-1,0 -2,0 -3,0l-102 0"/>
  <path class="fil0" d="M166 193c1,-23 -3,-67 -37,-66 -13,1 -20,9 -15,22 -6,-13 2,-22 15,-23 37,-3 39,42 37,67z"/>
  <path class="fil1" d="M166 193c1,-8 2,-25 -3,-39 -13,-42 -62,-30 -49,-5"/>
  <path class="fil0" d="M274 159c-5,-11 -97,-7 -100,1 -1,0 -1,0 -2,0 0,0 0,-1 0,-1l0 0c0,0 0,0 0,0 -2,-5 -2,-15 -7,-27 0,0 -9,-16 -9,-16 11,18 14,22 17,41 12,-9 96,-9 101,2z"/>
  <path class="fil1" d="M274 159c-3,-11 -101,-8 -101,0 0,-1 -2,-8 -2,-10 -3,-14 -8,-20 -15,-33"/>
  <path class="fil0" d="M173 159c-3,7 -5,14 -4,21 -4,-9 -2,-13 4,-21z"/>
  <path class="fil1" d="M173 159c-4,5 -7,14 -4,21"/>
  <path class="fil0" d="M165 206c0,0 -6,8 -6,11 -2,1 2,3 -3,4 3,0 3,0 4,-2 2,-2 4,-10 4,-12l0 1c0,-1 1,-1 1,-2zm-6 11c0,0 0,0 0,0 0,0 0,0 0,0z"/>
  <path class="fil1" d="M165 206c0,1 -1,1 -1,1 0,1 -3,9 -4,10 0,0 -1,1 -1,1 0,3 0,3 -3,3"/>
  <path class="fil0" d="M274 207c42,0 84,0 127,1l-1 -1c1,1 2,0 2,-1 0,0 0,0 0,0 -2,-10 -1,-42 9,-50 35,13 34,-28 -1,-40 -3,-2 -15,-3 -19,0 1,-2 2,-4 2,-7 0,3 -1,5 -2,7l0 0 0 0 0 0 0 0c3,-3 16,-1 19,0 31,12 36,51 2,38 -6,-2 -11,20 -12,21 -3,19 -2,27 -1,31 -16,-2 -109,0 -111,0l0 0c-10,0 -5,0 -14,1zm126 -1l0 -1c0,0 1,0 2,1 -1,0 -1,0 -2,0z"/>
  <path class="fil1" d="M274 207c4,0 9,0 14,0l113 -1c-2,2 0,-35 2,-39 3,-3 4,-9 8,-12 28,13 34,-18 12,-32 -5,-3 -11,-8 -17,-8 -12,-2 -15,1 -15,1 0,0 2,-6 2,-7"/>
  <path class="fil0" d="M393 109c-18,-5 -37,-7 -57,-13 -18,-5 -47,-14 -62,1 14,-13 36,-6 53,-1 25,7 44,7 66,13z"/>
  <path class="fil1" d="M393 109c-2,-2 -30,-5 -36,-7 -4,-1 -8,-1 -14,-2 -17,-5 -55,-19 -69,-3"/>
  <path class="fil0" d="M274 83c12,1 -1,6 14,5 1,1 1,1 2,2 0,-1 -1,-2 -2,-3 -13,-3 -4,-6 -14,-4z"/>
  <path class="fil1" d="M274 83c12,-1 0,5 14,5 0,0 2,1 2,2"/>
  <path class="fil0" d="M393 111c5,1 9,-1 10,3 2,-7 -8,-4 -10,-3z"/>
  <path class="fil1" d="M393 111c3,0 4,-1 7,0 2,0 3,0 3,3"/>
  <path class="fil0" d="M401 206c0,0 -7,8 -7,11 -1,1 3,3 -3,4 4,0 4,0 4,-2 3,-2 5,-10 5,-12l0 1c0,-1 1,-1 1,-2zm-7 11c1,0 1,0 1,0 0,0 0,0 -1,0z"/>
  <path class="fil1" d="M401 206c0,1 -1,1 -1,1 0,1 -4,9 -4,10 -1,0 -1,1 -1,1 0,3 0,3 -4,3"/>
  <path class="fil0" d="M274 201c15,4 105,1 121,1l-57 -2c0,0 -59,2 -64,1z"/>
  <path class="fil1" d="M274 201c1,1 6,1 7,1l114 0"/>
  <path class="fil0" d="M395 202c0,-14 -1,-50 17,-56 0,0 0,0 0,0 0,0 0,0 0,0 -22,5 -18,41 -17,56z"/>
  <path class="fil1" d="M395 202c0,-15 -1,-20 2,-35 1,-8 5,-20 15,-21 0,0 0,0 0,0"/>
  <path class="fil0" d="M274 193c0,0 5,0 5,0l0 0c3,0 108,3 109,1 0,-1 0,-17 0,-17 1,-29 1,-10 2,-17l0 0c8,-30 32,-29 36,-20 -1,-5 -6,-8 -15,-6 -26,7 -26,37 -26,58 -37,0 -74,1 -111,1zm152 -53c1,2 1,4 0,6 0,1 -1,1 -1,1 1,-2 2,-5 1,-7zm-1 7c-2,4 -10,5 -13,-1 0,1 1,2 2,3 5,4 9,2 11,-2z"/>
  <path class="fil1" d="M274 193c2,0 3,0 5,0l108 0c-1,-8 -1,-25 2,-33 0,0 0,0 0,0 5,-23 34,-35 37,-18 2,10 -12,11 -14,4"/>
  <path class="fil0" d="M274 180c66,2 40,2 105,0 -64,-1 -40,-1 -105,0z"/>
  <path class="fil1" d="M274 180c1,0 1,0 2,0l103 0"/>
  <path class="fil0" d="M381 193c0,-23 3,-67 37,-66 13,1 21,9 15,22 6,-13 -1,-22 -15,-23 -36,-3 -38,42 -37,67z"/>
  <path class="fil1" d="M381 193c0,-8 -1,-25 3,-39 13,-42 62,-30 49,-5"/>
  <path class="fil0" d="M274 159c4,-11 97,-7 100,1 1,0 0,0 1,0 0,0 0,-1 0,-1l0 0c0,0 0,0 0,0 2,-5 2,-15 8,-27 0,0 8,-16 8,-16 -10,18 -13,22 -17,41 -12,-9 -96,-9 -100,2z"/>
  <path class="fil1" d="M274 159c3,-11 100,-8 100,0 0,-1 2,-8 2,-10 3,-14 8,-20 15,-33"/>
  <path class="fil0" d="M374 159c3,7 6,14 5,21 3,-9 2,-13 -5,-21z"/>
  <path class="fil1" d="M374 159c4,5 7,14 5,21"/>
  <path class="fil0" d="M382 206c0,0 7,8 7,11 1,1 -3,3 3,4 -3,0 -4,0 -4,-2 -3,-2 -5,-10 -5,-12l0 1c0,-1 -1,-1 -1,-2zm7 11c-1,0 -1,0 -1,0 0,0 1,0 1,0z"/>
  <path class="fil1" d="M382 206c0,1 1,1 1,1 0,1 4,9 5,10 0,0 0,1 0,1 0,3 0,3 4,3"/>
  <g>
   <path class="fil2" d="M58 173c-42,-34 -69,-35 -50,-54 2,-2 18,12 25,19 -3,-16 -11,-65 8,-59 4,2 4,33 4,43 25,1 71,-5 43,16 -1,0 -38,-3 -44,-4l1 15c21,18 25,10 13,24zm427 -14c9,-6 58,-46 63,-40 13,16 6,11 -27,30 -34,18 -26,28 -36,10zm0 0l5 7c38,-26 20,-13 55,-40 0,0 -1,0 -1,-1 -38,21 -19,10 -59,34zm-14 -58c15,11 9,6 21,15 6,-15 -7,-26 -21,-15zm0 0c17,-16 32,4 30,12 -6,22 -22,-5 -30,-12zm13 29c0,1 1,2 1,2l-1 -2c-10,5 -20,3 -23,-8 -4,-13 0,-16 5,-15 -11,17 2,31 18,23zm1 2c2,3 3,4 3,6 1,0 1,0 2,-1l-5 -5zm3 6c1,5 -5,6 -13,4 4,0 8,-2 13,-4zm-13 4c-4,-2 -10,-4 -14,-7 3,4 8,7 14,7zm-14 -7c-11,-9 -18,-24 3,-42 33,-31 61,27 32,40 -3,1 -25,-21 -30,-26 9,3 24,17 29,22 10,-13 10,-30 -8,-37 -28,-12 -38,26 -26,43zm5 -28l0 0 0 0 0 0zm0 0c0,0 0,0 0,0l1 0c0,0 -1,0 -1,0zm24 30l0 0 0 0 0 0zm-75 -63c-19,50 49,6 21,-10 -9,-5 -17,3 -21,10zm0 0c6,-11 17,-20 27,-9 27,31 -50,56 -27,9zm-11 24c-18,-9 -9,-2 7,-36 1,-3 10,-48 26,-30 2,2 -3,12 -6,19 41,-5 17,82 -19,52 -4,-3 -4,-6 -5,-11l-3 6zm19 -44l0 -1c0,0 0,0 1,0 1,-4 4,-10 8,-18 -1,-1 -1,-1 -3,-2 -21,39 -11,20 -32,61l7 4c0,0 2,-5 2,-6l0 0 1 0c0,0 0,0 0,0 12,30 45,9 43,-17 -2,-35 -34,-1 -27,-21zm-67 -3c18,3 11,2 26,4 -2,-16 -18,-20 -26,-4zm0 0c8,-22 30,-11 32,-2 5,22 -22,5 -32,2zm25 21c1,0 2,0 2,1l-2 -1c-7,10 -20,11 -26,0 -16,-27 21,-11 35,-7 3,-16 -5,-31 -23,-29 -31,2 -22,41 -4,50 -14,-3 -27,-13 -17,-38 16,-43 66,-4 47,20 -1,3 -31,-7 -38,-9 -2,20 15,27 26,13zm2 1c3,1 5,2 6,3 0,0 0,0 0,-1l-6 -2zm6 3c3,4 -3,8 -10,10 3,-2 6,-5 10,-10zm-10 10c-5,1 -11,1 -16,0 5,2 10,3 16,0zm10 -11l0 0 1 0 -1 0zm-128 -2c0,-1 1,-72 3,-72 29,-2 17,6 32,58l0 1c5,-16 20,-58 24,-58 24,-1 15,3 14,39 -1,8 8,49 -16,38 -3,-2 -1,-31 1,-49 -28,67 -25,63 -46,-14 -2,48 9,56 -3,57 3,-82 -3,-81 21,0l7 0c12,-30 19,-50 22,-57l0 0 1 0c2,-4 3,-4 3,1l0 0 0 1c1,7 0,25 -1,55l2 0c3,-43 2,-23 5,-66l-9 -1c-32,78 -21,79 -43,-3l-13 -1c-3,47 -2,24 -4,71l6 0c-2,0 -4,0 -6,0zm9 0c-1,0 -2,0 -3,0l3 0 0 0zm0 0l0 0 0 0 0 0zm-33 3c-1,-10 -16,-72 -8,-74 20,-5 13,-1 15,38 0,0 4,35 2,36 0,0 -9,0 -9,0 6,0 3,0 9,-1l0 0c-7,-47 -3,-23 -12,-70l5 4c-6,-1 -3,-1 -9,-1l2 -3c3,48 2,24 5,71zm-54 -16c10,30 40,7 23,-16 -6,-10 -26,-9 -23,16zm0 0c-2,-14 2,-27 17,-25 43,7 -5,76 -17,25zm-9 1c-9,-58 77,-30 47,13 -12,16 -39,17 -47,-13zm0 0c11,35 43,20 45,5 7,-43 -49,-48 -45,-5zm-23 37c-7,-20 -32,-55 -10,-54 1,0 2,1 2,1 9,-22 36,3 13,7 -19,2 9,32 3,42 -5,-11 -23,-46 -1,-47 0,-2 0,-2 0,-3 -7,0 -10,5 -12,8l0 1 0 0c-2,5 -2,8 -6,-4 -2,0 -2,0 -4,1 10,31 5,15 15,48l7 -3c-1,1 -2,1 -2,1l-5 2zm8 -4c0,0 -1,1 -1,1l1 -1 0 0zm0 0l1 0 -1 1 0 -1zm-65 5c19,25 40,-6 17,-23 -9,-7 -27,1 -17,23zm0 0c-6,-12 -6,-26 9,-29 42,-7 19,74 -9,29zm-7 4c-30,-56 70,-50 47,0 -9,19 -33,23 -47,0zm0 0c21,30 46,5 44,-10 -8,-43 -63,-29 -44,10zm-29 70l6 -8c-18,-14 -22,-10 -21,-32 0,-1 38,2 44,2l5 -7c-59,-1 -52,12 -55,-37l-3 2c5,64 13,61 -25,28l-5 6c35,30 18,15 54,46z"/>
   <path id="1" class="fil3" d="M57 172l-1 -1 -1 0 -1 -1 0 -1 -2 -1 0 0c2,2 4,3 6,5l-17 -15 -2 -2 19 17 6 -8c-9,-6 -14,-9 -17,-12l0 0c-1,-1 -1,-1 -1,-2 1,3 4,4 8,7 2,2 6,4 10,7 0,0 0,0 0,0l-6 8c1,-2 2,-3 3,-4 2,-2 3,-3 3,-4 -1,2 -3,4 -6,8l-1 -1zm-5 -4l-1 -1 -1 0c1,0 1,1 2,1l0 0zm-2 -1l-1 -1 -1 -1 -1 -1 0 0c1,1 2,2 3,3l0 0zm-4 -3l-1 -1 0 0 1 1 0 0zm-2 -2l0 0 -1 0 2 1 -1 -1zm-42 -32l0 0 0 0 0 0 0 0zm0 -1l0 0 0 0 0 0 0 0zm0 -1l0 0 0 -1 0 1 0 0zm7 -9l0 0c0,0 0,0 0,0 0,0 -1,0 -1,0 0,0 0,0 1,0zm2 1l0 0 1 0c0,1 0,1 1,1 5,4 15,12 20,17 0,-3 -1,-8 -2,-13 1,5 2,10 2,13l0 0 0 0c0,0 0,0 0,0 -3,-3 -9,-8 -15,-13 -4,-3 -7,-5 -9,-6 0,0 1,1 2,1zm30 -41l0 0 0 0c0,0 0,0 0,0l0 0zm0 0l0 0 0 1 0 0 0 0 0 0 0 0 0 -1 0 0zm0 1l0 0 1 0 -1 0 0 0zm1 0l0 0 0 0 0 0 0 0m0 0l0 0 0 0 0 0 0 0m0 1l0 0 0 0 0 0 0 0zm0 0l0 0 0 0m0 0l0 1m0 0l1 0 0 0 0 0 0 0 -1 0 0 0zm1 0l0 0 0 0 0 0m0 2l0 0c0,0 0,1 0,1l0 0 0 1c0,-1 0,-2 0,-3 0,0 0,1 0,1zm1 2l0 0 0 0 0 0 0 1 0 0 0 0 0 -1 0 0 -1 0 1 0zm0 1l0 0 0 1 0 0 0 0 0 0c1,6 1,13 1,19 0,-7 0,-15 -1,-20m40 35l0 0 1 0 1 0 1 1 0 0c0,0 0,0 1,0 -2,-1 -5,-1 -7,-1 1,0 2,0 3,0zm5 1l0 0 1 0 -1 0 0 0zm2 0l0 0 0 0 0 0 0 0zm6 5l0 0 0 0 0 0 0 0zm0 1l0 0 -1 0 1 0 0 0zm-1 1l0 0 0 0 0 0 0 0zm-8 8l0 0c-2,0 -4,0 -8,-1l0 0 -3 0 -1 0 -1 0 0 0 -3 0 -1 0 0 0 -1 0 -2 -1 0 0 -1 0 0 0 -2 0 -1 0 -5 0 -1 -1 -2 0 0 0 -4 0 0 0 -8 -1 1 15c1,1 1,1 1,1l1 1 0 0 0 0c8,6 13,9 15,10 0,0 -1,0 -2,-1 -3,-2 -8,-5 -15,-11l0 0 -1 -15 0 0c0,0 0,0 0,0l2 0c9,1 41,4 42,4l1 0 -1 0c0,0 0,0 0,0zm173 -65l6 0 0 0 0 0 -6 0 0 0 0 0 0 0zm3 0l0 0 -1 0 0 0 -1 0 0 0 0 0 0 0 -1 0 0 0 0 0 0 0c1,0 2,0 3,0 1,0 2,0 3,0l0 0 0 0 0 0 0 0 0 0m-6 0l0 -1 0 1 1 -21 1 -15 0 -13 2 -22c0,0 0,0 0,0l13 1c0,0 0,0 0,0 2,7 3,14 5,21 -1,-3 -1,-5 -2,-8l0 0 -1 -4 0 0 -1 -3 0 0c0,-2 -1,-3 -1,-4l0 -1 0 -1 -13 -1c-3,47 -2,24 -4,71zm0 -1c0,-5 1,-40 2,-59l0 0 0 -2 0 -1 0 -1 0 -1 0 0 0 -1 0 -1c-1,15 -2,55 -2,65l0 1zm2 -66c0,0 0,-1 0,-2 0,1 0,2 0,2zm0 -2l0 0 0 0 0 0 0 0zm0 -1l0 0 0 0 0 1m1 -1l0 -1 -1 1 0 0m1 -1l0 0 0 0 0 0 0 0 0 0 0 0 0 0 0 0zm0 -1l0 0 0 0 0 0 0 0 0 0 0 0 0 0 0 0zm0 0l0 0 0 0 0 0 0 0zm0 0l0 0 1 0 -1 0 0 0zm1 0c1,0 1,0 2,0 -1,0 -1,0 -2,0zm3 0c1,0 2,0 2,0l0 0 1 0c-1,0 -2,0 -3,0zm4 0l0 0 0 0 1 0 -1 0zm3 0l0 0 0 0c0,0 1,0 1,0l0 0 0 0c0,0 -1,0 -1,0zm1 0l0 0 1 0 0 0 -1 0zm1 0l0 0 1 0c-1,0 -1,0 -1,0zm1 0l0 1 0 0 0 0 0 -1zm0 1c1,0 1,0 1,0 0,0 0,0 -1,0zm1 0l0 0 0 0 1 0 0 0 -1 0 0 0zm1 0l0 0c0,0 0,0 0,0m0 0l0 1 0 0 0 0 0 -1zm1 1l0 0 0 0 0 0 0 0zm0 0l0 0 0 0 0 0 0 0zm1 0l0 1 0 0 0 0 0 -1zm0 1l0 0 0 0 0 0 0 0zm1 0l0 0 0 0 0 1 0 -1zm0 1l0 0 0 0 0 0 0 0zm0 0l0 0 0 0 0 1 0 -1zm1 1l0 0 0 0 0 0zm0 0l0 0 0 1 0 0 0 -1zm0 1l0 0 0 0 0 0 0 0zm1 1l0 0 0 0 0 0 0 0zm0 0l0 0 0 0 0 1 0 -1zm0 1l0 0 0 0 0 0 0 0zm1 4l0 0 0 0 0 1 0 -1zm0 1c0,1 1,2 1,3l0 1c1,3 1,8 2,14l0 1 1 1 0 0 0 1 0 1c0,1 1,3 1,4l0 1 0 1 1 1 0 1 0 1 0 1c-2,-10 -3,-18 -4,-24 -1,-3 -1,-6 -2,-8zm6 32l0 1 1 0 0 1 0 2 0 1 1 1 0 1 0 1 1 2 0 1 0 0c-1,-4 -2,-8 -3,-11zm3 11l0 1 1 1 0 0 0 1 0 0 0 -1 -1 -2zm1 3l2 -6 -1 3 -1 3 0 0zm2 -6c1,-3 2,-6 3,-10 -1,4 -2,7 -3,10zm3 -10c2,-4 3,-8 5,-12l0 0c0,-1 0,-2 1,-3l0 -1c1,-2 2,-5 3,-7l0 -1c1,-2 2,-4 3,-6l0 0 0 -1 0 0 0 0m1 -3c1,-1 1,-2 2,-3l0 0c0,0 0,-1 0,-1l1 0 0 0c-4,7 -11,24 -16,38m16 -39l0 0 0 0 0 0 0 0zm0 0l0 0 0 0 0 0 0 0zm1 -1l0 0 0 0 0 0 0 0zm0 0l0 -1 0 0 0 0 0 0 0 0 0 1zm0 -1l0 0 0 0m0 0l1 0 0 0 0 0 -1 0zm1 -1l0 0 0 0 0 0 0 0zm0 0l0 0 0 0 0 0m0 0l0 0 0 0 0 0 0 0zm0 0c0,0 0,0 0,0l0 0 0 0c0,0 0,0 0,0zm0 0c0,0 1,0 1,0 1,0 1,0 2,0 -1,0 -1,0 -2,0 0,0 -1,0 -1,0zm9 0l1 0 0 0 0 0 -1 0zm1 0l0 0 0 0 1 0 0 0 1 0 0 0 0 0c-1,0 -1,0 -2,0zm2 0l0 0 0 0 0 0 0 0zm1 0l0 0 0 0 0 0 0 0zm1 1l0 0 0 0 0 0 0 0zm0 0l1 0 0 0 0 0 -1 0zm1 0l0 0 0 0 0 0 0 0zm0 1l0 0 0 0 0 0 0 0zm1 0l0 0 0 0 0 0 0 0zm0 0l0 0 0 0 0 0 0 0zm1 1l0 0 0 0 0 0 0 0zm0 1l0 0 0 0 0 0 0 0zm0 0l0 0 0 0 0 0 0 0zm0 1l0 0 0 0 0 0 0 0zm0 0l0 0 0 0 0 0 0 0zm0 2l0 0 0 0 0 0 0 0zm0 3l0 0 0 1 0 0 0 0 0 0c0,4 -1,9 -2,16l0 0 0 2 0 0c0,1 0,2 0,3l0 0 0 1 0 0 0 1 0 1 0 1 0 1 0 0 0 1 0 1 0 0 0 0c0,0 0,1 0,1 0,-1 0,-1 0,-1 0,-10 1,-17 1,-22 1,-3 1,-5 1,-7zm-2 30c0,1 0,1 0,2 0,-1 0,-1 0,-2zm0 3c0,1 0,3 0,5l0 0c0,1 0,2 1,2l0 1c0,1 0,3 0,4l0 0c0,1 0,2 0,3l0 0c0,1 0,2 0,3 0,-6 0,-11 -1,-16l0 -2zm1 18c0,0 0,1 0,1l0 0c0,1 0,1 0,1 0,-1 0,-1 0,-2zm0 2l0 1 0 0 0 1 0 0 0 1c0,-1 0,-2 0,-3zm0 3l0 1 0 0 0 -1zm-1 6l-1 0 0 0 0 0 1 0zm-3 4l0 0 0 0 0 0 0 0zm-1 1l0 0 0 0 0 0 0 0zm-1 1l-1 0 0 0 0 0 1 0zm-1 0l0 0 0 0 0 0 0 0zm-1 0l0 0 0 0 0 0 0 0zm-5 0l0 0 0 0 0 0 0 0zm-4 -1l0 0 0 0 0 0 0 0zm-1 -3l0 0 0 0 0 -1 0 0 0 -1 0 0 0 -1 0 -1 0 0 0 -1 0 0 0 -1 0 0 0 0c-1,-3 0,-7 0,-11l0 1c-1,7 -1,13 0,16zm0 -18c0,-1 0,-3 0,-5 0,2 0,4 0,5zm0 -8c1,-3 1,-7 1,-10l0 0c0,-4 1,-7 1,-10l0 0c-1,6 -1,13 -2,20zm2 -20c-3,6 -5,12 -7,18 1,-4 3,-8 5,-13l2 -5 0 0zm-7 18c-2,3 -3,6 -4,9 1,-3 2,-6 4,-9zm-4 9c-1,3 -2,5 -3,7l0 0 -1 0c1,-2 2,-4 4,-7zm-4 8c0,0 -1,1 -1,2l0 1c0,-1 1,-2 1,-3zm-1 3l-1 0 0 0 0 1 1 -1zm-2 3l0 0 0 0 0 0 0 0zm-1 1l0 0 0 0 0 0 0 0zm0 1l0 0 0 0 0 0 0 0zm-1 1l0 0 0 0 0 0 0 0zm0 1l-1 0 0 0 0 0 1 0zm-2 1l0 1 0 0 0 0 0 -1zm-1 1l0 0 0 0 0 0 0 0zm0 0l0 0 0 0 0 0 0 0zm-1 0l0 0 0 0 0 0 0 0zm0 0l0 0 0 0 0 0 0 0zm-2 0l0 0 0 0 0 0 0 0zm0 0l0 0 0 0 0 0 0 0zm-3 -4l0 0 0 0 0 0 0 0zm-1 -3l0 0 0 0 -1 0 1 0zm-10 -31c-1,-6 -3,-12 -5,-19 1,5 2,9 4,13l1 6zm-5 -20l-1 -3 0 0 1 3zm-1 -3l0 1 0 0c0,2 0,3 0,4l0 1 0 1 0 1 0 1 0 1 0 1 0 0 0 2c0,-4 0,-8 0,-13l0 0zm0 13c0,1 0,2 0,4l0 0 0 2 0 0c0,3 0,5 0,7 0,-4 0,-8 0,-13zm0 13c0,1 0,2 0,3 0,-1 0,-2 0,-3zm0 3c0,2 1,4 1,5 0,-1 -1,-3 -1,-5zm1 5c0,7 1,11 1,15 0,-2 0,-4 0,-6 -1,-2 -1,-5 -1,-9zm1 16c0,0 0,1 0,1 0,0 0,-1 0,-1zm0 3l0 0 0 0 0 0 0 0zm0 0l0 1 0 0 0 0 0 -1zm0 1l0 0 0 0 0 0 0 0zm0 1l-1 0 0 1 0 0 1 -1zm-1 1l0 0 0 0 0 0 0 0zm-4 1l0 0 0 -2 0 0 0 -4 0 0c0,-15 1,-26 1,-35l0 5c-1,9 -1,21 -1,36l0 0zm2 -58l0 0 0 0 0 0 0 0zm0 -3l0 0 0 0 0 0 0 0zm0 0l0 0 0 0 0 0zm1 0l0 0 0 0 0 0 0 0zm2 4l0 0 0 0 0 0 0 0zm1 4c0,1 1,2 1,3 0,-1 -1,-2 -1,-3zm1 3c1,5 3,10 5,17l0 0 0 2 0 1 1 0 0 3 1 1 0 0c0,3 1,5 2,8l0 0c1,4 2,8 4,13l0 0 1 5 0 0c-4,-15 -8,-28 -11,-37 -1,-5 -2,-9 -3,-13zm14 50l7 0c8,-21 14,-37 18,-47l0 -1 1 -1 0 0c0,-1 1,-2 1,-4l0 0 1 0 0 -1c0,-1 1,-1 1,-2 -2,5 -6,14 -11,28 -3,8 -7,18 -11,28 0,0 0,0 0,0l-7 0 0 0zm29 -56l0 -1 0 0 1 0 0 0m1 -2c0,0 0,0 0,0l0 0 0 0 0 -1 0 0 0 0 1 0 0 0 0 0c0,0 0,0 0,0l0 0 0 0m0 0c0,0 0,0 0,0 0,0 0,0 0,0zm0 0c0,0 0,1 1,1 -1,0 -1,-1 -1,-1zm1 1c0,0 0,0 0,0 0,0 0,0 0,0zm0 1c0,0 0,0 0,0 0,0 0,0 0,0zm0 0c0,1 0,1 0,2l0 0c0,-1 0,-1 0,-2zm0 2l0 0 0 1c0,0 0,0 0,1l0 0c0,1 0,2 0,3l0 0 0 1 0 0 0 2 0 0 0 0 0 1 0 1 0 0 0 2 0 0 0 1 0 1 0 2 0 1c0,4 0,9 0,14l0 1c0,7 -1,15 -1,24l0 0c0,-9 1,-17 1,-23 0,-16 1,-27 0,-32l0 -1 0 0 0 0zm-1 56l2 0 1 -5 -1 5c0,0 0,0 0,0l-2 0 0 0zm3 -13c1,-13 1,-17 1,-22l0 2c0,4 0,7 -1,14l0 6zm1 -22c1,-3 1,-6 1,-10l0 -1 1 -6 -1 5c0,6 0,9 -1,12zm2 -26l1 -5 -9 -1 0 1 -1 2 -1 2 0 0c-1,2 -1,3 -2,4l0 1 -1 2 0 1 -1 3 0 0 -1 2 0 1 -1 2 -1 1c-1,2 -1,4 -2,6l0 0c-2,5 -4,10 -5,14 1,-2 1,-5 2,-7 4,-9 8,-21 14,-35 0,0 0,0 0,0l9 1c0,0 0,0 0,0l-1 5zm-27 43l0 0 0 0 -1 2 0 0 0 0 0 -1 0 0 1 -1zm-1 3l0 0 -1 0 0 0 1 0zm-1 1l0 0 0 0 0 1 0 -1zm0 1l-1 0 0 0 0 1 1 -1zm-1 1l0 0 0 0 0 1 0 -1zm0 1l-1 0 0 0 0 0 1 0zm-1 1l0 0 0 0 0 0 0 0zm0 0l0 1 0 0 0 0 0 -1zm-1 1l0 0 0 0 0 0 0 0zm0 0l0 0 0 0 0 0 0 0zm-1 1l0 0 0 0 0 0zm-2 -1l0 0 0 0 0 0 0 0zm0 0l0 0 0 0 0 0 0 0zm-6 -18c-1,-5 -2,-10 -4,-17l0 0c0,-2 -1,-3 -1,-5 1,6 3,11 4,15 0,3 1,5 1,7zm-245 115c-2,-1 -5,-3 -7,-4 2,1 5,3 7,4zm-7 -4c-9,-6 -17,-10 -22,-14 2,1 5,3 8,5 4,2 9,5 14,9zm-24 -15c-1,-1 -1,-1 -2,-2 1,1 1,1 2,2zm-4 -23l0 0 0 0 0 0 0 0zm23 5c0,-1 0,-2 0,-3 0,1 0,2 0,3zm-1 -8c0,-1 0,-2 0,-3 0,1 0,2 0,3zm11 -37l0 0c0,0 0,0 0,0 0,0 0,0 0,0l0 0zm1 2l0 0m3 27c0,1 0,2 0,3 0,-1 0,-2 0,-3zm0 3c0,2 0,4 0,5 0,-1 0,-3 0,-5zm0 5c0,2 0,4 0,6 2,0 4,0 6,0 -2,0 -4,0 -6,0 0,0 0,0 0,0l0 -3 0 -3zm8 6c1,0 3,0 4,0 -1,0 -3,0 -4,0zm8 0c7,0 13,0 19,0 -5,0 -11,0 -17,0l-2 0zm35 4l0 0 0 0 0 0zm-31 38c-1,1 -1,1 -1,1 0,0 0,0 1,-1zm420 -5c6,-4 33,-26 50,-36l0 0 1 0 0 0 0 -1c-11,7 -29,20 -41,29 -4,4 -8,7 -10,8 9,-5 14,-9 19,-11 6,-4 9,-5 11,-7 3,-2 6,-3 13,-7 4,-2 9,-5 16,-9 0,0 0,0 0,0l0 0 0 0c-38,21 -19,10 -59,34l5 7c38,-26 20,-13 55,-40l0 0 0 0 0 0m-8 -4c1,0 1,-1 2,-1l0 0 0 0c0,0 -1,0 -2,1zm3 -1l0 0 0 -1 0 0 0 1zm0 -1l1 0 0 0c0,0 1,0 1,-1l1 0 0 0 0 0 0 0 0 0 0 0c-1,1 -2,1 -3,1zm4 -1l0 0 0 0 0 0 0 0zm0 0l1 0 0 0 0 0c0,0 -1,0 -1,0zm1 0l0 0 0 0 0 0 0 0zm1 0l0 0 0 0 0 0 0 0zm0 0l0 0 0 0 0 0 0 0zm1 0l0 0 0 0 0 0 0 0zm0 0l0 0 0 0 0 0 0 0zm0 0l0 0 1 0 0 0 -1 0zm1 0l0 0c3,3 5,6 6,8 -1,-2 -3,-5 -6,-8l0 0zm6 8c0,1 0,1 0,1 0,0 0,0 0,-1zm0 2c0,0 0,0 0,0 0,0 0,0 0,0zm-2 4c-1,0 -1,0 -1,1 0,-1 0,-1 1,-1zm-1 1c-1,0 -1,0 -1,0 0,0 0,0 1,0zm-1 0c-1,1 -3,1 -4,2l0 0 -2 1 0 0 -3 1 0 0 0 0 0 0c-2,1 -3,2 -5,3l0 0 -1 0 0 0 -1 1 -1 0 -1 1 -1 0c-1,1 -2,1 -3,2l-1 0c-1,1 -2,1 -3,2l0 0c-1,0 -1,1 -2,1l-1 0 0 1 -1 0 -1 0 0 1 -1 0 -1 0 -1 1 0 0 -1 1 -1 0 0 1 -1 0 -1 1 0 0 -1 0 0 1 -1 0 0 0 -1 1 0 0 -1 0c0,1 -1,1 -2,2l0 0c0,0 -1,1 -1,1l-1 0c0,0 -1,1 -1,1l0 0c-4,4 -7,6 -9,7 1,0 2,-1 3,-2 4,-3 11,-9 24,-16 9,-5 16,-9 21,-11 3,-2 6,-3 8,-4zm-57 34l0 0 0 0 -1 0 1 0 0 0zm-2 0l0 0 0 0 0 0 0 0zm-1 0c-1,-1 -2,-3 -4,-7l0 1c2,3 3,5 4,6zm-5 -8l0 -1m59 -33l0 -1 0 0 0 0 0 0 0 0 0 0c0,0 0,1 0,1l0 0zm-52 -10l0 0 0 0 0 -1 1 0 0 0 0 -1 0 0 0 0 0 -1 0 0 0 0c0,1 0,2 -1,3l0 0c0,0 0,0 0,0l-5 -3c-2,-2 -3,-3 -4,-3 -1,-1 -3,-2 -5,-4 -1,-1 -3,-3 -7,-5 2,1 3,4 5,6 2,2 5,5 7,8 -4,-5 -8,-10 -11,-14l0 0 0 0 -1 0 0 0 0 0 0 0c2,-2 5,-3 7,-4l-1 0 0 0 0 1 0 0 -1 0 0 0 0 0 -1 0 0 1 0 0 -1 0 0 0 0 0 -1 0 0 1 0 0 -1 0 0 0 0 1 -1 0 0 0c15,11 9,6 21,15zm1 -3l0 0 0 -1 0 0c0,0 0,0 0,1zm0 -2l0 0 0 0 0 0 0 -1 0 0 0 0 0 -1 0 0 0 0c0,1 0,1 0,2zm0 -2l0 0 0 -1 0 0 0 0 0 -1 0 0 0 0 0 -1 0 0 0 0 0 0 0 -1 0 0 0 0 0 0 0 -1 0 0 0 0 0 0 0 0 -1 -1 0 0c0,0 0,-1 0,-1l0 0 0 0 0 0 -1 -1 0 0 0 0 0 0 0 -1 0 0 0 0 -1 0 0 0 0 0 0 -1 0 0 0 0 -1 0 0 0 0 0 0 0 0 -1 0 0 -1 0 0 0 0 0 0 0 0 0 -1 0 0 -1 0 0 0 0 -1 0 0 0 0 0 0 0 0 0 -1 0 0 0 0 0 0 0 -1 0 0 0c0,0 0,0 0,0l-1 0 0 -1 0 0 0 0 -1 0 0 0 0 0 0 0 -1 1 0 0 0 0 0 0 -1 0 0 0 0 0 -1 0 0 0 0 0c1,0 3,-1 4,-1 2,0 4,1 6,3 2,1 3,3 4,5 0,1 0,3 0,5zm-14 -12l0 0 0 0 -1 0c1,0 1,0 1,0zm-1 0l0 0 0 0 0 0c0,0 0,0 0,0zm1 -1l1 0 0 0 0 -1 -1 1zm7 -1l0 0 0 0 0 0 0 0zm0 0l1 0 0 0 0 0 -1 0zm1 0l0 0 0 0 0 0 0 0zm11 9c1,0 1,0 1,1 0,-1 0,-1 -1,-1zm1 2c1,1 1,2 1,2 0,0 0,-1 -1,-2zm1 2c0,1 0,1 1,1 -1,0 -1,0 -1,-1zm1 5l0 0 0 1 0 -1 0 0zm-2 5l0 0 0 0 0 0 0 0zm-1 1l0 0 0 0 0 0 0 0zm0 1l0 0 0 0 0 0 0 0zm-1 0l0 0 0 0 0 0 0 0zm-1 1l0 0 0 0 0 0 0 0zm-11 -4c0,-1 -1,-1 -2,-2 1,1 2,1 2,2zm-1 13l0 0m-2 1c0,0 -1,0 -1,1 0,-1 1,-1 1,-1zm-3 1c0,0 -1,0 -1,1 0,-1 1,-1 1,-1zm-1 1c-1,0 -1,0 -2,0 1,0 1,0 2,0zm-3 0c0,0 0,0 0,0 0,0 0,0 0,0zm-1 0c-1,0 -1,0 -1,0 0,0 0,0 1,0zm-2 0c-1,0 -1,0 -1,0 0,0 0,0 1,0zm-11 -11l0 0c0,-1 0,-2 -1,-3 0,-1 0,-3 0,-4 0,-1 0,-1 0,-1l0 -1 0 0 0 0 0 -1 0 0 0 0c0,0 0,0 0,-1l0 0c0,0 0,0 0,0 0,0 0,-1 0,-1 -1,3 0,6 1,12l0 0zm-1 -12c0,0 0,0 0,0 0,0 0,0 0,0zm0 -1c0,0 0,0 0,0l0 0c0,0 0,0 0,0zm1 -1c0,0 0,0 0,0l0 0 0 0 0 0 0 0 0 0 0 0 1 0 0 -1 0 0 0 0 0 0c1,0 2,0 3,0 -1,0 -3,0 -4,1 0,0 0,0 0,0zm4 -1c1,0 1,0 1,0l0 1 0 0 0 0 -1 1 0 0 0 1 0 0 0 0 -1 1 0 0 0 0 0 1 0 0 0 1 -1 0 0 0 0 1 0 0 0 0c1,-2 2,-4 3,-7 0,0 0,0 -1,0zm-2 7l0 0 0 1 0 0 0 0 0 1 -1 0 0 1 0 0 0 0 0 0 0 1 0 0 0 1 0 0 0 0 0 1 0 0 0 0 0 0 0 1 0 0 0 0 0 1 0 0 0 0 0 0 0 1 0 0 1 0 0 0 0 1 0 0 0 0 0 1 0 0 0 0 0 0 0 1 1 0 0 0 0 0 0 1 0 0 0 0 0 0 1 1 0 0 0 0 0 0 0 0 0 1 1 0 0 0 0 0 0 0 0 0 1 1 0 0 0 0 0 0 0 0 1 0 0 1 0 0 0 0 1 0 0 0 0 0 0 0 1 1 0 0 0 0 0 0 1 0 0 0 0 0 0 0 1 0 0 0 0 0 1 0 0 0 0 0 0 0c0,0 -1,0 -2,0 -2,-1 -4,-2 -6,-4 -2,-2 -3,-4 -3,-7 0,-2 0,-4 1,-7zm10 18l0 0 1 0 0 1c0,-1 0,-1 -1,-1zm2 1l0 0 0 0 0 0 1 0 0 0 0 -1 1 0 0 0 0 0 1 0 0 0c-1,1 -2,1 -3,1zm3 -1l0 0 0 0 1 0c-1,0 -1,0 -1,0zm1 0l0 0 0 0 0 0 1 0 0 0 1 0 0 0 0 -1 1 0 0 0 0 0 1 0 0 0 1 0 0 -1m0 0c0,0 0,0 0,0 0,1 1,2 1,2l-1 -2c0,0 0,0 0,0zm1 2c2,3 3,4 3,6l0 0 0 0c0,-1 0,-2 -1,-3 0,-1 -1,-2 -2,-3l5 5 -1 0 0 0 0 0 0 0 0 0 0 0 0 0 0 0 0 0 1 0 -5 -5zm3 6l0 0 0 0 0 0zm1 0l0 0 0 0 0 0zm0 0l0 0 0 0 0 -1 0 0 0 1 0 0 0 0 0 0zm-1 0c0,0 0,0 0,0l0 0c-2,1 -4,2 -6,3 -3,0 -5,1 -7,1 4,1 7,1 9,1 1,-1 1,-1 1,-1 0,0 -1,1 -1,1l0 0c0,0 -1,0 -1,0l0 0 0 0 0 0 0 0 0 0 -1 0 0 0 0 0 0 0 0 0 -1 0 0 0 0 0 0 0c-1,0 -1,0 -1,0l0 0 -1 0 0 -1 0 0 0 0c-1,0 -2,0 -3,0l0 0c0,0 0,0 -1,0 1,0 2,0 3,0l0 -1c3,0 6,-1 10,-3zm0 0c0,0 0,1 0,1 0,0 0,-1 0,-1zm0 1c0,0 0,0 0,1 0,-1 0,-1 0,-1zm0 1c0,1 -1,2 -3,2 1,0 1,0 2,0 0,-1 1,-1 1,-2zm-13 2l0 0 0 0 -1 -1 0 0 -1 0 0 0c-1,0 -3,-1 -4,-2 2,1 4,2 6,3 -3,0 -5,-1 -8,-2 -2,-1 -4,-3 -6,-5 1,0 2,1 3,2 -1,-1 -2,-2 -3,-2 2,2 4,4 7,5l0 0c0,1 1,1 1,1l0 0 0 0 0 0 1 0 0 0c0,0 0,0 0,0l0 0 1 0 0 0 0 0 0 0 1 0 0 0c0,1 0,1 1,1l0 0c1,0 1,0 2,0zm-8 -3c0,-1 -1,-1 -2,-2 1,1 2,1 2,2zm-2 -2c0,0 0,0 -1,0 1,0 1,0 1,0zm1 -30c1,1 1,1 1,1 0,0 0,0 -1,-1 1,1 2,2 3,3 7,7 23,22 26,23l0 0 0 0 0 0 0 0 0 0 0 0c-1,0 -1,0 -1,-1l-1 0 0 0 0 0c-7,-5 -23,-21 -27,-25zm3 1c0,1 1,1 1,1 0,0 -1,0 -1,-1zm2 2c1,0 1,0 1,0 0,0 0,0 -1,0zm2 1c8,5 18,14 22,18l0 -1 0 0 1 0 0 0 0 -1 0 0c0,0 1,-1 1,-1 -1,1 -1,2 -2,3 0,0 0,0 0,0l-1 -1c-4,-4 -13,-13 -21,-17zm24 15c0,0 0,-1 1,-1l0 -1 0 0 0 0c0,0 1,-1 1,-1l0 -1 0 0 0 0 0 0 0 -1 1 0 0 0 0 0 0 -1 0 0 0 0 0 -1c1,0 1,-1 1,-2l0 0 0 -1c0,2 -1,3 -1,5 -1,2 -2,3 -3,5zm4 -10c0,-1 0,-1 0,-1 0,0 0,0 0,1zm0 -2l1 0 0 0 0 0 0 -1 0 0c0,1 0,1 -1,1zm1 -1l0 0 0 0 0 -1 0 0 0 0c0,0 0,1 0,1zm0 -1l0 0 0 -1 0 0c0,0 0,1 0,1zm0 -1l0 0 0 0 0 -1 0 0m0 0c0,0 0,-1 0,-1l0 0 0 0 -1 -1 0 0 0 -1 0 0 0 0 0 0 0 0 0 -1 0 0 0 0 0 0 0 -1 0 0 0 -1 -1 0 0 0 0 0 0 -1 0 0 0 0 0 -1 0 0 -1 0 0 0 0 -1 0 0 0 0 0 -1 -1 0 0 0 0 0 0 -1 0 0 -1 0 0 0 0 -1 0 0 -1 0 0 0 0 -1 0 0 -1 0 0 0 0 -1 0 0 -1 0 0 0 0 0 0 -1 0 0 -1 0 0 0 0 0 -1 -1 0 0 0 0 -1 0 0 0 -1 -1 0 0 0 0 0 0 -1 0 0 -1 -1 0 0 0 -1 0 0 0 0 0c0,0 -1,-1 -1,-1l0 0c0,0 -1,0 -1,0l0 0c1,0 1,0 2,1 3,1 5,2 7,4 4,3 6,7 7,11 0,1 1,2 1,3zm-17 -19l0 0c-1,0 -1,0 -1,-1l-1 0c1,1 1,1 2,1zm-2 -1l0 0c0,0 0,0 -1,0l0 0c1,0 1,0 1,0zm-1 0l0 0c0,0 -1,0 -1,0l0 0c0,0 1,0 1,0zm-1 0l0 0c0,0 -1,0 -1,0l0 0c0,0 1,0 1,0zm-1 0l0 0c-1,0 -1,0 -1,0l0 0c0,0 0,0 1,0zm-1 0l0 0c-1,0 -1,0 -1,0l0 0c0,0 0,0 1,0zm-2 0l0 0c0,0 0,0 -1,0l0 0c1,0 1,0 1,0zm-1 0l0 0c0,0 0,0 -1,0l0 0c1,0 1,0 1,0zm-1 0l0 0c0,0 0,0 -1,0l0 0c0,0 0,0 -1,0l0 0c0,0 0,0 -1,0l0 0c1,0 2,0 3,0zm-3 0l0 0c0,0 0,0 -1,0l0 0 0 1c0,0 0,0 -1,0l0 0c0,0 0,0 0,0l-1 0c0,0 0,0 0,1l0 0c0,-1 1,-1 2,-1 1,-1 1,-1 1,-1zm-3 2l0 0c-1,0 -1,0 -1,0l0 0c-1,0 -1,0 -1,1l0 0c0,0 -1,0 -1,0l0 0c0,0 0,1 -1,1l0 0c0,0 0,0 0,0l0 0c-1,1 -1,1 -1,1l0 0c0,0 0,1 -1,1l0 0c0,0 0,0 0,1l0 0c-1,0 -1,0 -1,0l0 0c0,1 0,1 -1,1l0 0c0,0 0,1 0,1l0 0 0 0c0,0 0,1 -1,1l0 0c0,0 0,0 0,1l0 0c0,0 0,0 -1,1l0 0c0,0 0,0 0,1l0 0c0,0 0,0 0,1l0 0c-1,0 -1,0 -1,1l0 0c0,0 0,0 0,0l0 1c0,0 0,0 0,1l0 0c-1,0 -1,0 -1,1l0 0c0,1 0,2 0,3l0 0c0,0 -1,0 -1,1l0 0 0 0 0 1 0 0c0,0 0,1 0,1l0 0c0,0 0,1 0,1l0 0 0 1 0 0 0 1 0 0 0 1 0 1 0 0 0 1 0 0 0 1 0 0 0 0c0,-3 0,-6 0,-9 1,-5 3,-9 5,-13 2,-3 4,-6 8,-7zm-13 30l0 0 0 0 0 1 1 0 0 1c-1,-1 -1,-2 -1,-2zm1 2l0 0 0 0 0 1c0,-1 0,-1 0,-1zm0 1l0 0 0 0 0 1c0,-1 0,-1 0,-1zm0 1l0 0 0 1 0 0c0,-1 0,-1 0,-1zm0 1l0 0 1 0 0 1c-1,-1 -1,-1 -1,-1zm1 1l0 0 0 0 0 1 0 0 0 1c0,-1 0,-2 0,-2zm0 2l0 0 1 0 0 1c0,0 0,0 0,0l0 0c0,0 0,-1 -1,-1zm1 1l0 1 0 0 0 0c0,0 0,0 0,-1zm1 1l0 0 0 1 0 0c0,0 0,0 0,-1zm0 1l0 0c0,0 0,1 0,1l1 0c-1,0 -1,-1 -1,-1zm1 1l0 0c0,0 0,0 0,1l0 0c0,-1 0,-1 -1,-1 1,0 1,0 1,1 0,-1 0,-1 0,-1zm-11 -18l0 -1 0 0 0 1zm1 -5l0 0 0 0 0 0 0 0zm1 -2l0 0 0 0 0 0 0 0zm11 -16l1 0 0 0 0 0 -1 0zm11 -7l0 0 0 0 0 0 0 0zm2 -1l0 0 0 0 0 0 0 0zm4 -1l0 0 0 0 0 0 0 0zm1 0l0 0 0 0 1 0 -1 0zm7 1l0 0 0 0 0 0 0 0zm20 28l0 0 0 0 0 0 0 0zm0 1l0 0 0 0 0 0 0 0zm0 3l0 0 0 0 0 0 0 0zm0 1l0 0 0 0 0 0 0 0zm-1 3l0 0 0 0 0 0 0 0zm0 1l0 0 0 0 0 0 0 0zm-1 1l0 0 0 0 0 0 0 0zm0 1l0 0 0 0 -1 0 1 0zm-1 1l0 0 0 0 0 0 0 0zm-5 6l0 0 0 0 0 0 0 0zm-4 2l0 0 0 0 0 0 0 0zm0 0l0 0 0 0 0 0 0 0zm0 0l0 0 0 0 0 0 0 0zm0 0l0 0 0 0 -1 0m-29 -26l0 0 0 0 0 0zm0 0c0,0 0,0 0,0l1 0c0,0 -1,0 -1,0zm24 30l0 0 0 0 0 0zm-75 -63l0 0c0,1 0,2 -1,2l0 1c0,0 0,1 0,1l0 1c-1,0 -1,1 -1,1l0 1c0,0 0,1 -1,1l0 0c0,1 0,2 0,2l0 0c0,1 0,1 0,2l0 0c0,0 0,1 0,1l0 0c0,-3 1,-7 3,-13l0 0 0 0 1 -1 -1 1c2,-3 5,-7 9,-9 2,-2 4,-3 6,-3 0,0 0,0 -1,0l0 0c-1,1 -3,1 -4,2l0 0c-1,0 -2,1 -3,2l0 0 -1 0 0 0c0,1 0,1 0,1l0 0c-1,1 -2,1 -2,2l0 0c-1,1 -1,1 -2,2l0 0c-1,1 -1,2 -2,3zm-3 13l0 0c0,1 0,1 0,2l0 0c0,0 0,0 0,1l0 0c0,-1 0,-2 0,-3zm0 3l0 0c0,0 0,1 0,1l0 0c0,0 0,1 0,1l0 0c0,-1 0,-1 0,-2zm0 2l0 0c0,0 0,1 0,1l0 0c0,0 0,1 1,1l0 0c-1,-1 -1,-1 -1,-2zm1 2l0 0c0,0 0,0 0,1l0 0c0,0 0,0 1,0l0 0c-1,0 -1,-1 -1,-1zm1 1l0 0c0,0 0,1 0,1l0 0c0,0 0,0 1,0l0 0c-1,0 -1,0 -1,-1zm1 1l0 0c0,0 0,1 0,1l0 0 1 0c0,0 0,0 0,0l0 0c0,0 1,0 1,0l0 0c0,0 0,0 1,0l0 0c0,0 0,0 1,0l0 0c-1,0 -2,0 -3,0 -1,0 -1,-1 -1,-1zm4 1l0 0c0,0 0,0 1,0l0 0c0,0 0,0 0,0l1 0c0,0 0,0 0,0l1 0c0,0 0,0 0,0l1 0c0,-1 0,-1 0,-1l1 0c0,0 0,0 0,0l1 0c0,0 0,0 0,-1l1 0c0,0 0,0 1,0l0 0c0,0 0,0 1,-1l0 0c0,0 0,0 1,0l0 0 0 0c0,0 0,-1 1,-1l0 0c0,0 0,0 1,-1l0 0c0,0 0,0 1,0l0 0c0,-1 0,-1 1,-1l0 0c0,0 0,-1 1,-1l0 0c0,0 0,-1 1,-1l0 0c0,0 0,0 1,-1l0 0c0,0 0,0 0,-1l1 0c0,0 0,0 0,-1l0 0c1,0 1,0 1,-1l0 0c0,0 1,0 1,0l0 -1c0,0 0,0 1,0l0 -1c0,0 0,0 0,0l0 -1 0 0c1,0 1,0 1,-1l0 0c0,0 0,0 0,-1l0 0c0,1 0,2 -1,2 -2,5 -7,9 -11,12 -4,2 -7,3 -10,3zm22 -17l0 0c0,0 1,0 1,-1l0 0c0,1 -1,1 -1,1zm1 -1l0 0c0,0 0,0 0,-1l0 0c0,0 0,0 0,-1l0 0c0,0 1,0 1,-1l0 0c-1,1 -1,2 -1,3zm1 -3l0 0c0,0 0,-1 0,-1l0 0c0,0 0,1 0,1zm0 -1l0 0c0,0 0,-1 0,-1l0 0c0,0 0,1 0,1zm0 -1l0 0c0,0 0,-1 0,-1l0 0c0,0 0,1 0,1zm0 -1l0 0c0,0 0,-1 0,-1l0 0c-1,0 -1,-1 -1,-1l0 0c0,1 1,1 1,2zm-1 -2l0 0c0,0 0,-1 0,-1l0 0c0,0 0,-1 -1,-1l0 0c1,1 1,1 1,2zm-1 -2l0 0c0,0 0,-1 0,-1l0 0c0,0 -1,0 -1,-1l0 0c0,0 0,0 -1,-1m0 0l0 0c0,0 0,0 -1,0l0 0c0,-1 -1,-1 -1,-1l0 0c0,-1 -1,-1 -1,-1l0 0 0 0 -1 0 0 0 0 0 0 -1 0 0 -1 0 0 0 0 0 0 0 0 0 -1 0 0 0 0 0 0 0 0 0c1,0 2,0 3,1 1,1 2,2 3,2zm-7 -3l0 0 0 -1c0,0 0,1 0,1zm0 -1l0 0 0 0m-1 0c0,0 0,0 0,0l0 0c0,0 -1,0 -1,0 1,0 1,0 1,0zm-14 10c0,-1 1,-2 1,-3 0,1 -1,2 -1,3zm2 -4c0,0 1,-1 1,-1 0,0 -1,1 -1,1zm3 -3c0,0 0,0 0,0 0,0 0,0 0,0zm1 -1c1,-1 1,-1 2,-1 -1,0 -1,0 -2,1zm3 -2c0,0 1,0 1,-1 0,1 -1,1 -1,1zm5 -2l0 0 0 0 0 0zm1 0l1 0 0 0 -1 0zm5 1l0 0 0 0 0 0zm5 4l0 0 0 0 0 0 0 0zm3 4l0 0 0 1 0 0 0 -1zm3 7l0 0 0 0 0 1 0 -1zm0 2l0 0 0 0 0 0 0 0zm-1 3l0 1 0 0 0 0 0 -1zm0 2l0 0 0 0 0 0 0 0zm0 1l0 0 0 0 0 0 0 0zm-25 16l0 0 0 0 -1 0 1 0zm-1 0l0 0 -1 0 0 0 1 0zm-3 0l0 0 0 0 0 0 0 0zm-1 0l0 0 0 0 0 0 0 0zm0 -1l-1 0 0 0 0 0 1 0zm-1 0l0 0 0 0 0 0 0 0zm-1 -1l0 0 0 0 0 0 0 0zm-1 0l0 0 0 0 0 0 0 0zm-1 -1l0 0 0 0 0 0 0 0zm0 -1l0 0 0 0 0 0 0 0zm-1 -1l0 0 0 0 0 0 0 0zm0 0l0 -1 0 0 0 0 0 1zm-1 -1l0 -1 0 0 0 0 0 1zm0 -2l0 0 0 0 0 0 0 0zm0 -1l0 0 0 0 0 0 0 0zm0 -1l0 0 0 0 0 0 0 0zm0 -1l0 0 0 0 0 -1 0 1zm0 -3l0 0 0 0 0 -1 0 1zm0 -2l0 0 0 0 0 0 0 0zm-7 14c-2,-1 -4,-2 -6,-3 1,1 2,1 3,2 1,0 2,0 3,1l-7 -4 0 0 7 4c0,0 1,-2 1,-4l0 0c1,-1 1,-2 1,-2l0 0 1 0c0,0 0,0 0,0l0 0c0,0 0,0 0,0l0 0c0,0 0,1 0,1l0 0c0,1 1,1 1,2l0 0c0,0 0,0 0,1l1 0c0,0 0,1 0,1l0 0c0,0 1,1 1,1l0 0c0,1 0,1 1,1l0 0c0,1 0,1 0,1l0 0c1,0 1,1 1,1l0 0c0,0 1,1 1,1l0 0c-3,-3 -5,-6 -6,-10 0,0 0,0 0,0l0 0 0 0c0,0 0,0 0,0l0 0c0,0 0,0 0,0l-1 0 0 0 0 0 0 0c0,0 0,1 -1,2 0,2 -1,4 -1,4l3 -6 0 0 -3 6zm-6 -3c0,0 -1,0 -1,0 0,0 1,0 1,0zm-1 0c0,0 -1,-1 -1,-1 0,0 1,1 1,1zm-2 -5c1,-2 2,-4 4,-7l1 0c0,-1 0,-1 1,-2l0 0 0 -1 0 0c1,-1 1,-2 2,-3l0 -1 1 0 0 -1 1 0 0 -1c0,0 0,-1 1,-2l0 0 0 -1 1 0 0 -1 0 -1 1 0 0 -1 0 -1 1 0 0 -1 1 -1 0 -1 0 0 1 -1 0 -1 0 0 0 0 0 0 0 0 0 0m0 -1l0 0 0 0 0 0 0 0 1 0 0 -1c0,0 0,0 0,-1l0 0 0 0 0 0c0,-2 1,-5 2,-7 -1,2 -1,5 -2,7 0,1 -1,2 -1,2zm3 -9c0,-1 0,-2 1,-2 -1,0 -1,1 -1,2zm1 -3c0,-1 1,-3 2,-5 -1,2 -2,4 -2,5zm2 -5c0,-1 0,-1 0,-2 0,1 0,1 0,2zm0 -2c1,-1 1,-1 1,-2 0,1 0,1 -1,2zm2 -3c0,0 0,-1 0,-1 0,0 0,1 0,1zm18 -7l0 0c0,0 0,0 0,0 0,0 0,0 0,0l0 0zm1 1c0,0 0,0 0,1l0 0m-1 1c0,0 0,1 0,1l0 1 0 0 0 0 0 1 0 0c-1,1 -1,3 -2,4 0,-1 1,-2 1,-3 1,-3 2,-5 2,-6m-4 11c-1,2 -2,5 -3,7l0 0c1,-3 3,-6 4,-9m-4 9l0 0 0 0 0 0zm2 0l0 0 0 0 0 0 0 0zm2 0l0 0 0 0 0 0 0 0zm1 0l0 0 0 0 1 0 -1 0zm2 0l0 0 0 0 0 0 0 0zm1 0l0 0 1 0 0 0 -1 0zm2 1l0 0 0 0 0 0 0 0zm1 0l0 0 0 0 0 0 0 0zm1 1l0 0 0 0 1 0 -1 0zm2 1l0 0 0 0 0 0 0 0zm1 1l0 0 0 0 0 0 0 0zm1 1l1 1 0 0 0 0 -1 -1zm3 5l0 0 0 0 0 0 0 0zm2 6l0 0 0 0 0 0 0 0zm0 11l0 0 0 0 0 0 0 0zm0 2l0 0 0 0 0 0 0 0zm-1 1l0 0 0 1 0 0 0 -1zm0 2l0 0 0 0 0 0 0 0zm-14 23l0 0 0 0 0 0 0 0zm-8 3l0 0 0 0 0 0 0 0zm-1 0l0 0 0 0 0 0 0 0zm-2 0l0 0 0 0 0 0 0 0zm-1 0l0 0 0 0 0 0 0 0zm-2 0l0 0 0 0 0 0 0 0zm-3 -1l0 0 0 0 0 0 0 0zm-8 -5l0 0c-2,-2 -3,-3 -4,-5 1,2 2,3 4,5l0 0zm-4 -5c0,-2 -1,-3 -1,-5 0,2 1,3 1,5zm-1 -5l0 -1 0 0 0 1 0 0zm25 -58l0 -1 0 1c0,0 1,0 1,0 -2,2 -3,5 -4,7 0,-1 1,-2 2,-4l1 -2 0 -1zm-2 -2l-1 0 -1 1 -8 15 -1 1 0 1 0 1 -1 1 0 1 -2 3 -1 0 0 1 0 0 0 0 0 0 0 1 -1 1 -1 2 0 0 0 0 0 1 0 0 0 0 0 0c-2,4 -4,8 -10,18l0 1 -1 1 -3 7 -2 4 0 0 10 -19c3,-6 4,-9 6,-12 1,-4 3,-7 6,-13l10 -17c0,0 0,0 0,0l1 0 0 0zm-17 69l0 0c0,0 0,0 1,1l0 0c0,0 0,0 0,0l0 0c1,0 1,1 1,1l0 0c1,0 1,0 1,0l0 0c0,1 1,1 1,1l0 0c0,0 1,0 1,0l0 0c0,1 0,1 1,1l0 0c0,0 0,0 0,0l1 0 0 0c0,0 0,0 0,0l1 0c-1,0 -1,0 -2,0 -2,-1 -4,-2 -6,-4zm8 4l0 0c0,0 0,0 0,1l0 0c1,0 1,0 1,0l0 0c1,0 1,0 1,0l0 0c1,0 1,0 1,0l0 0c-1,0 -2,0 -3,-1zm3 1l0 0c1,0 1,0 1,0l0 0c0,0 1,0 1,0l0 0c0,0 1,0 1,0l0 0c0,0 1,0 1,-1l0 0c0,0 1,0 1,0l0 0c0,0 0,0 1,0l0 0 0 0c0,0 0,0 1,0l0 0c0,0 0,-1 1,-1l0 0c0,0 0,0 0,0l1 0c0,0 0,0 0,0l0 -1c1,0 1,0 1,0l0 0c-1,1 -3,2 -4,2 -2,1 -4,1 -6,1zm10 -3l0 0c1,0 1,0 1,0l0 -1c1,0 1,0 1,0l0 0c0,0 1,0 1,-1l0 0c0,0 0,0 1,0l0 0c0,-1 0,-1 1,-1l0 0c0,0 0,0 0,-1l1 0 0 0 0 0 0 -1 1 0 0 0 1 -1 0 0 0 -1 1 0 0 0 0 -1 1 0 0 -1 0 0 1 -1 0 0 0 -1 1 0 0 0c0,-1 0,-1 0,-1l0 0c0,-1 1,-1 1,-1l0 0c0,-1 0,-1 0,-1l0 -1 1 0 0 -1c0,0 0,0 0,0l0 -1c0,0 0,0 0,0l1 -1 0 0 0 -1c0,0 0,0 0,-1l0 0c0,0 0,0 0,-1l0 0c1,0 1,-1 1,-1l0 0c0,0 0,-1 0,-1l0 0c0,-1 0,-1 0,-1l0 0c0,-1 0,-1 0,-1l0 -1c0,0 0,0 0,-1l0 0c0,0 0,-1 0,-1l0 0c0,0 0,-1 0,-1l0 0 0 0c0,-1 0,-1 0,-2l0 0c0,0 0,-1 0,-1l0 0c0,-1 0,-1 0,-1l0 -1c0,0 -1,0 -1,-1l0 0c0,0 0,-1 0,-1l0 0c1,2 1,4 1,7 1,10 -4,19 -10,25 -2,2 -4,3 -6,4zm15 -36l0 0c0,0 0,-1 0,-1l0 0c0,0 0,1 0,1zm0 -1l0 0c0,-1 0,-1 -1,-1l0 0c1,0 1,0 1,1zm-1 -1l0 0c0,-1 0,-1 0,-1l0 0c0,0 0,0 0,1zm0 -1l0 0c0,0 0,-1 0,-1l0 0c-1,0 -1,-1 -1,-1l0 0c0,1 1,1 1,2zm-1 -2l0 0c0,0 0,0 0,0l0 -1c0,0 -1,0 -1,0l0 0c1,0 1,1 1,1zm-1 -1l0 0c0,0 0,-1 0,-1l0 0c-1,0 -1,0 -1,0l0 0c0,0 0,-1 0,-1l0 0c-1,0 -1,0 -1,0l0 0c0,0 0,0 -1,0l0 -1c0,0 0,0 0,0l0 0c0,0 -1,0 -1,0l0 0c0,0 0,0 0,0l-1 0c0,0 0,0 0,0l0 0c0,0 -1,0 -1,0l0 0c0,0 0,-1 0,-1l-1 0c0,0 0,0 0,0l0 0 -1 0 0 0 -1 0 0 0 0 0 0 1 0 0 -1 0 0 0 -1 0 0 0 0 0 -1 0 0 0 0 0 -1 0 0 0 0 0 -1 0 0 0 0 0 -1 1 0 0 0 0 0 0 -1 0 0 0 0 0 0 0 -1 0 0 0c0,0 -1,0 -1,1l-1 0c0,0 0,0 -1,0l0 0 0 0c1,0 3,-1 4,-1 2,-1 5,-1 7,-2 4,0 7,1 9,4zm-21 -1l0 0 0 0 0 0 0 0zm-3 -1l0 0 0 0 0 0 0 0zm1 -6l0 0 0 -1c0,0 0,0 1,0 0,-2 1,-3 2,-5l0 -1 0 0m1 -2l1 -1 -1 1c-2,3 -3,6 -3,8 0,0 0,0 0,0l-1 0 0 0 0 1 0 0 0 0m-67 -3l2 0 -2 0c2,1 5,2 8,3 4,2 10,5 14,6l0 0 0 0 -1 -1 0 0 0 0 0 0 -1 0 0 0c-1,0 -2,-1 -2,-1l0 0c-2,0 -3,-1 -5,-1l0 0c-3,-2 -7,-4 -10,-5l0 0 0 0 0 0 0 0c-1,0 -1,0 -1,0l0 0 -1 0 0 -1 0 0 0 0 -1 0 0 0 0 0c1,0 1,0 1,0l0 0 -1 0 0 0zm3 1l5 1 0 0 0 0 0 0 1 0 0 0 0 0 0 0 0 0 0 0 3 0 0 0c3,1 4,1 8,1l0 0 0 1 1 0 0 0 2 0 1 0 2 0 0 0 0 0 0 -1 0 0 0 0 0 -1 0 0c0,0 -1,0 -1,-1l0 0 0 0 0 0 0 -1 0 0 0 -1 0 0 0 0 0 0 -1 -1 0 0 0 0 0 -1 0 0 0 0 0 0 -1 -1 0 0 0 0 0 -1 0 0 0 0 -1 0 0 0 0 -1 0 0 0 0 -1 0 0 -1 0 0 0 0 0 0 0 0 0 0 -1 -1 0 0 0 0 0 0 -1 0 0 0 0 0 0 -1 0 0 -1 0 0 0 0 0 0 0 0 0 -1 0 0 0 0 -1 0 0 -1 0 0 0 0 0 0 0c0,0 -1,0 -1,0l0 0 0 0 0 0 0 0 -1 0 0 0 0 0 0 0 -1 0 0 0 0 0 0 0 -1 0 0 0 0 0 0 0 -1 0 0 0 0 0 0 0 -1 0 0 0 0 0 0 1 -1 0 0 0c0,0 0,0 0,0l0 0 0 0 -1 0 0 0 0 0 0 0 -1 1 0 0 0 0 0 0 -1 0 0 0 0 1 0 0 -1 0 0 0 0 1 0 0 0 0 -1 0 0 0 0 1 0 0 0 0 -1 1 0 0c2,-3 4,-4 6,-5 2,-1 4,-1 6,-1 2,0 4,1 6,3 2,3 4,6 5,11l0 0c0,0 0,0 0,0l-6 0c-3,-1 -4,-1 -6,-1 -1,-1 -2,-1 -5,-1 -1,-1 -3,-1 -6,-1zm0 -5l0 0 0 0 0 0 -1 1 0 0 0 0 0 0 0 1 0 0c0,-1 1,-2 1,-2zm-1 2l0 0 -1 1 0 0 0 0 0 0c0,0 0,0 1,-1zm11 -10l0 0 0 0 0 0zm19 10l0 0 0 0 0 0 0 0zm1 3l0 0 0 0 0 0 0 0zm0 0l0 1 0 0 0 0 0 -1zm0 1l0 0 0 0 0 0 0 0zm0 2l0 0 0 0 0 0 0 0zm0 0l0 0 0 0 0 1 0 -1zm0 1l0 0 0 0 0 0 0 0zm0 1l0 0 0 0 -1 0 1 0zm-1 0l0 0 0 0 0 0 0 0zm-4 3l0 0 0 0 0 0 0 0zm-1 0l0 0 0 0 0 0 0 0zm0 0l-1 0 0 0 0 0 1 0zm7 5l0 0 0 -1 0 0 1 0 0 -1 0 0 0 -1 0 0 0 0 0 -1 0 0c0,1 0,3 -1,4 0,0 0,0 0,0 -2,-1 -4,-1 -7,-2 2,0 4,1 5,1l0 0 1 1 1 0 0 0 0 0 0 0zm1 -4l0 0 0 0 0 -1 0 0 0 0c0,0 0,1 0,1zm0 -1l0 -1 0 0 0 0 0 -1c0,0 0,0 0,0 0,0 0,1 0,2zm0 -2l0 -1 0 0 0 -1 0 0 0 0c0,1 0,1 0,2zm0 -2l0 0 0 0 0 0 0 -1 0 0 0 0 0 -1 0 0 0 0c-1,-1 -1,-1 -1,-1 1,1 1,2 1,3l0 0zm-1 -3l0 0 0 -1 0 0 0 0 0 -1 0 0 0 0 0 -1 0 0 0 0 0 -1c0,1 0,3 0,4zm-1 -4l0 0 0 0 0 0c0,0 0,0 0,0zm0 0l0 0 0 -1 0 0 0 0c0,-1 -1,-2 -1,-2l0 0 -1 -1 0 0 0 0 0 -1 0 0 0 0 -1 0 0 -1 0 0 0 0c0,0 -1,-1 -1,-1l0 0c0,-1 -1,-1 -1,-1l0 0c0,-1 -1,-1 -1,-1 1,1 2,2 3,3 1,2 2,4 3,6zm-6 -9c0,0 0,0 -1,-1l0 0 0 0c0,1 1,1 1,1zm-1 -1l0 0 0 0 -1 0 0 0 0 0c0,0 1,0 1,0zm-1 0l0 -1 0 0m-1 0l0 0 0 0 0 0 -1 0 0 0 0 -1 -1 0 0 0 0 0c1,0 2,1 2,1zm-2 -1l0 0 -1 0 0 0 0 0 0 0c0,0 0,0 1,0zm-1 0l-1 0 0 0 0 -1 -1 0 0 0 0 0 -1 0 0 0 0 0 0 0 -1 0 0 0 0 0 -1 0c1,0 2,0 2,0 1,0 2,0 3,1zm-5 -1l0 0 0 0 -1 0 0 0 0 0 -1 0 0 0 -1 0 0 0c1,0 2,0 3,0zm-3 0l0 0 0 0 -1 0c1,0 1,0 1,0zm-1 0l0 0 0 0 -1 0 0 0 0 0 -1 0c0,0 0,0 -1,0l0 0c0,0 -1,0 -1,0l0 0c-1,0 -1,0 -1,0l-1 0c0,0 0,1 -1,1l0 0c0,0 -1,0 -1,0l0 0c0,0 -1,0 -1,0l0 0c-1,1 -1,1 -1,1l0 0c-1,0 -1,0 -1,0l0 0c-1,0 -1,1 -1,1l0 0c-1,0 -1,0 -1,0l0 0c0,1 -1,1 -1,1l0 0c0,0 -1,0 -1,1l0 0c0,0 0,0 -1,0l0 0c0,0 0,1 0,1l0 0 0 0c-1,0 -1,0 -1,1l0 0c0,0 0,0 -1,0l0 0c0,1 0,1 0,1l0 0c0,1 -1,1 -1,1l0 0c0,0 0,1 0,1l0 0c0,0 -1,0 -1,1l0 0c0,0 0,0 0,1l0 0c0,0 0,0 0,0l0 1c-1,0 -1,0 -1,0l0 0c0,1 0,1 0,1l0 0c0,1 0,1 0,1l0 0c0,1 0,1 0,1l0 0c0,1 0,1 -1,1l0 0c0,1 0,1 0,1l0 0 0 0c0,1 0,1 0,1l0 0c0,1 0,1 0,1l0 0 0 1 0 0c0,-1 0,-2 0,-3 1,-4 2,-9 6,-12 3,-3 8,-6 15,-6 0,0 1,0 1,0zm-22 21l0 1 0 0 0 1 0 0 0 1c0,0 0,0 0,0l1 1 0 0 0 0c-1,-1 -1,-2 -1,-4zm1 5l0 0 0 0 0 1c0,0 0,0 0,1l0 0 0 0 0 1c0,0 1,0 1,1l0 0c0,0 0,0 0,1l0 0 0 1 0 0 0 0 1 1 0 0 0 1 0 0c0,0 0,0 0,1l1 0 0 1 0 0c0,0 0,0 0,1l0 0c1,0 1,0 1,1l0 0c0,0 0,0 0,1l0 0c1,0 1,0 1,0l0 1c0,0 0,0 1,0l0 0c0,1 0,1 0,1l0 0c0,1 1,1 1,1l0 0 0 1 1 0c0,0 0,0 0,1l0 0c0,0 1,0 1,0l0 1c0,0 0,0 1,0l0 0c0,1 0,1 0,1l0 0c1,0 1,0 1,1l0 0c0,0 1,0 1,0l0 0c0,0 0,1 1,1l0 0c0,0 0,0 0,0l0 0c1,1 1,1 1,1l0 0c0,0 1,0 1,0l0 1c0,0 1,0 1,0l0 0 0 0 0 0c-7,-3 -12,-10 -15,-18 0,-2 -1,-4 -1,-6zm6 20c-1,0 -1,0 -1,0 0,0 0,0 1,0zm-10 -13l0 0 0 0 0 -1 0 1zm0 -1l0 0 0 0 0 0c0,0 0,0 0,0zm0 0l0 -1 0 0 0 0 0 1zm0 -4l0 0 0 0 0 0 0 0zm0 -3l0 -1 0 0 0 0 0 1zm3 -13l0 0 0 -1 0 1 0 0zm2 -6l0 0 0 0 0 0 0 0zm5 -7l0 0 0 0 0 0 0 0zm5 -3l0 0 0 0 0 0 0 0zm19 -2l0 0 0 0 0 0 0 0zm20 21l0 0 0 0 0 0 0 0zm-4 17l0 0c0,0 0,1 0,1 0,0 0,-1 0,-1l0 0zm0 1l0 0 0 0 0 0 0 0zm0 0l0 0 0 0 0 0 0 0 0 0 0 0zm-1 0c0,0 0,0 -1,0l0 0 0 0c1,0 1,0 2,0m-2 0c0,0 -1,0 -1,0l0 0 0 0 0 0 -1 0 0 0 0 0 -1 -1c-1,0 -1,0 -2,0l0 0 0 0 0 0 -2 0 0 0 -1 -1 -2 0 -1 0 0 0c-2,-1 -4,-1 -5,-2l-1 0c-1,0 -2,-1 -3,-1l0 0c-6,-2 -12,-3 -15,-4l0 0 0 0 0 -1 0 0 -1 0 0 0 0 0 0 0 0 1 0 0 0 1 0 0 0 1 0 0 0 1 0 0 0 0 0 1 0 0 0 1 0 0 0 0 0 1 0 0 0 1 0 0 0 0 0 1 0 0 1 0 0 1 0 0 0 0 0 1 0 0 0 0 0 1 0 0 1 0 0 1 0 0 0 0 0 1 0 0 0 0 1 0 0 0 0 1 0 0c0,0 0,0 0,0l0 0 1 1 0 0 0 0 0 0c0,0 0,0 0,1l0 0 1 0 0 0 0 0 0 0 1 1 0 0 0 0 0 0c0,0 1,0 1,0l0 0c0,0 0,1 0,1l0 0 1 0 0 0c0,0 0,0 0,0l0 0 0 0 1 0 0 0 0 1 0 0 1 0 0 0 0 0 0 0 1 0 0 0 0 0 1 0 0 0 0 0 0 0 1 0c0,0 0,0 0,0l0 0 1 0 0 0 0 0 0 0 1 0 0 0 0 0 0 0 1 0 0 0 0 0 1 0 0 0c0,0 0,0 0,0l0 -1 1 0 0 0 0 0 0 0c1,0 1,0 1,0l0 0 0 0 1 -1 0 0 0 0 1 0 0 0 0 0 0 -1 1 0 0 0 0 0 0 0 1 -1 0 0c-2,2 -5,3 -7,4 -3,0 -5,0 -8,-1 -2,-1 -4,-2 -5,-5 -3,-3 -4,-8 -3,-14 0,0 0,0 0,0 1,1 2,1 3,1 9,3 26,8 33,9zm-13 6l0 0 0 0 1 0 0 -1 0 0c0,1 -1,1 -1,1zm1 -1l0 0 0 0 1 -1 0 0 0 0 0 0 1 -1c-1,1 -1,2 -2,2zm2 -2l0 0 0 0 0 0c0,0 1,0 1,0l0 0 0 0 0 0 0 0 0 0c0,0 0,0 -1,0l2 1 0 -1 0 1 0 0 0 0 -2 -1c0,0 -1,1 -2,2 1,-1 2,-1 2,-2 0,0 0,0 0,0zm-2 3c-1,0 -1,1 -2,1 1,0 1,-1 2,-1zm-5 3c-1,0 -1,1 -1,1l0 0 -1 0c1,0 1,-1 2,-1zm-4 1c0,1 0,1 -1,1 1,0 1,0 1,-1zm-9 -1c0,0 0,0 0,0 0,0 0,0 0,0zm-1 0c0,-1 0,-1 0,-1l0 0 0 1zm-5 -6l0 0 0 0 0 0 0 0zm1 -15l0 0 0 0 0 0 0 0zm4 0c1,0 2,0 3,0 -1,0 -2,0 -3,0zm3 0c1,0 1,1 2,1 -1,0 -1,-1 -2,-1zm3 1c5,1 11,3 17,5l-1 0c-5,-2 -11,-4 -16,-5zm17 15c3,1 5,2 6,3 0,0 0,0 0,-1l-6 -2zm6 3l0 0 0 0c-2,2 -4,4 -5,6 -2,1 -4,3 -5,4l0 -1 0 1c3,-2 6,-5 10,-10zm0 0c0,0 0,1 0,1 0,0 0,-1 0,-1zm0 1c0,0 0,0 0,0l0 0 0 0c0,0 0,0 0,0zm0 1c0,0 0,0 0,1l0 0 0 0 0 0 0 0 0 0 0 0 0 0 0 0 0 0 0 0c0,1 0,1 0,1 0,-1 0,-1 0,-2l0 0zm-1 3c-1,1 -2,2 -5,3 2,0 3,-1 4,-2 1,0 1,-1 1,-1zm-5 3c0,0 0,0 0,0 0,0 0,0 0,0zm0 1c-1,0 -2,0 -2,0 0,0 1,0 2,0zm-3 0c0,0 0,0 -1,0 1,0 1,0 1,0zm-1 1c-1,0 -1,0 -2,0 1,0 1,0 2,0 -3,1 -5,2 -8,2 2,0 3,-1 5,-1l0 0c1,-1 2,-1 3,-1zm-2 0c-2,0 -4,0 -6,0l0 0c-1,1 -3,0 -4,0 1,0 3,1 4,0 2,0 4,0 6,0zm-10 0c-1,0 -3,0 -4,0 1,0 2,1 2,1l0 0c1,0 2,0 2,0l0 0c1,1 1,1 1,1l0 0c0,0 1,0 1,0l0 0c1,0 1,0 2,0l0 0c-3,0 -6,-1 -8,-2 1,0 3,0 4,0zm22 -11l0 0 1 0 -1 0zm-119 -2l0 0 0 0 0 0 -3 0 0 0 0 0 3 0 0 0zm-1 0l0 0 0 0 -1 0 1 0 0 0zm1 0l0 0 0 0 0 0zm-33 3l0 0 0 0 0 0 0 0 0 0 0 -1 0 0 0 0c-1,-7 -5,-24 -7,-40 1,10 3,21 5,29 1,5 2,10 2,12 0,-10 -1,-17 -1,-22 -1,-6 -1,-10 -1,-13 -1,-4 -1,-7 -1,-14l0 -1c0,8 0,12 1,16l0 1c0,3 0,7 1,13l0 0 0 2 0 1 0 1 0 0m-6 -25c-1,-2 -1,-4 -1,-5l0 0c0,-2 -1,-3 -1,-5l0 0 0 -1 0 0 0 -1 0 -1c0,-1 0,-2 -1,-2l0 -1 0 -1 0 0 0 0c1,5 2,11 3,17zm-3 -18c0,-1 0,-2 0,-2 0,1 0,2 0,3l0 0m0 -3l0 -1 0 0 0 -1 0 1 0 0 0 1zm0 -3l0 -1c0,1 0,2 0,3m0 -3l0 0 0 0m0 -1l0 0 0 0 0 0 0 0zm0 -1l0 0 0 0 0 0 0 0zm0 0c0,-1 0,-1 0,-1 0,0 0,0 0,1zm0 -2l0 0 0 0 0 -1 0 0m0 0l0 0 0 -1 0 0 0 1zm0 -1l0 0 0 0m0 -1l0 0 1 0 0 0 -1 0zm1 0l0 0 0 0 0 0 0 0zm0 -1l0 0 0 0 0 0 0 0zm0 0l0 0 0 0 0 0 0 0zm0 0l0 0 0 0 1 0 -1 0zm1 -1l0 0 0 0 0 0 0 0zm0 0l0 0c1,0 2,0 3,0 -1,0 -2,0 -3,0l0 0zm3 0c0,-1 1,-1 2,-1 -1,0 -2,0 -2,1zm2 -1c1,0 1,0 2,0l0 0 0 0c0,0 -1,0 -2,0zm2 0c1,0 1,-1 1,-1l0 0c1,0 1,0 2,0 -1,0 -2,0 -3,1zm3 -1l0 0 0 0 0 0 0 0zm0 0l1 0 0 0 0 0 -1 0zm1 0l0 0 0 0 0 1 0 -1zm0 1l0 0 0 0 0 0 0 0zm2 1l0 0 0 0 0 0 0 0zm1 4l0 0c0,0 0,0 0,0 0,0 0,0 0,0zm0 0c1,4 0,10 0,19 0,-3 0,-7 0,-10 0,-3 1,-6 0,-9zm0 19c0,1 0,2 0,3 0,-1 0,-2 0,-3zm0 5c0,2 0,3 0,5l0 0c0,1 0,2 1,3l0 1 0 1c0,0 1,11 2,21l0 1c0,1 0,3 0,4l0 1m1 5c0,0 0,1 0,2l0 0 0 0 0 0 0 0 0 0 0 1c0,-6 -3,-30 -3,-35l0 0c-1,-4 -1,-7 -1,-10m4 45l0 0 -1 0 0 0 0 0 0 0 0 0 0 0 1 0zm-1 0l0 0 0 0 0 0m0 0l0 0 0 0 0 0 0 0zm0 0l0 0 0 1 0 0 0 -1zm0 1l0 0 0 0 0 0 0 0zm0 0l0 0c0,0 -9,0 -9,0l2 0 -2 0 9 0c0,0 0,0 0,0zm-2 -1l2 0c-4,-24 -4,-29 -5,-35l0 0c-1,-1 -1,-3 -1,-4l0 0 0 0 0 0c0,-2 -1,-3 -1,-4 1,3 1,6 2,8 0,3 1,7 2,14 0,5 1,11 3,21l0 0 0 0c0,0 0,0 0,0l0 0 0 0c0,0 0,0 0,0 0,0 0,0 0,0l0 0 0 0c0,0 0,0 0,0l0 0 0 0 -2 0zm-5 -43l-1 -5 0 0 0 -1 0 -1 0 0 0 0 0 -1c-1,-4 -2,-9 -4,-16 0,0 0,0 0,0 0,0 0,0 0,0l0 0 0 -3 0 0c0,0 0,0 0,0l0 0 5 4c0,0 0,0 0,0l0 0 0 0c-2,0 -2,-1 -3,-1 -1,0 -1,0 -2,0 2,8 3,14 4,18l1 6zm-5 -24c-1,0 -1,0 -1,0l0 6 0 -6 -1 0c0,0 -1,0 -2,0l0 0c0,0 0,0 0,0l0 0 2 -3c0,0 0,0 0,0l0 0 1 3c0,0 0,0 1,0zm0 0l0 0 0 0 0 -3 5 4 -1 0 0 0 0 0 0 0 0 0 0 0 -1 0 0 0 0 -1 -1 0 0 0 -1 0 0 0 0 0 0 0 0 0 -1 0zm-1 0c-1,0 -2,0 -3,0l0 0 0 0 2 -3c0,1 1,2 1,3zm-50 52l0 0c0,0 0,1 0,1l1 0c0,0 0,1 0,1l0 0c0,1 0,1 1,1l0 1c0,0 0,0 0,1l0 0c0,0 0,0 1,1l0 0c0,0 0,0 0,1l0 0c0,0 1,0 1,1l0 0c0,0 0,0 0,1l0 0c1,0 1,0 1,0l0 0c0,1 1,1 1,1l0 0c0,0 0,1 0,1l0 0c1,0 1,0 1,0l0 0c0,1 1,1 1,1l0 0c0,0 0,0 0,0l1 0c0,1 0,1 0,1l0 0c1,0 1,0 1,0l0 0c0,0 0,0 1,0l0 0c0,1 0,1 0,1l1 0c0,0 0,0 0,0l0 0 0 0c0,0 1,0 1,0l0 0c0,0 0,0 1,0l0 0c0,0 0,0 0,0l0 0c0,0 -1,0 -2,0 -4,-1 -9,-5 -12,-14l0 0 0 0 0 -1 0 1c0,-3 0,-6 0,-8l0 0 0 0 0 1 0 0 0 1 0 0 0 1 0 0 0 1 0 0 0 0 0 1 0 1 0 0 0 1 0 0 0 1zm14 14l1 0c0,0 0,0 0,0l0 0c0,0 0,0 -1,0zm1 0l0 0c0,0 1,0 1,0l0 0c0,0 0,0 1,0l0 0c0,0 0,0 0,0l0 0c1,0 1,0 1,0l0 -1c-1,1 -2,1 -3,1zm3 -1l0 0c0,0 0,0 1,0l0 0c0,0 0,0 0,0l0 0c1,0 1,0 1,0l0 0 0 0c0,-1 0,-1 1,-1l0 0c0,0 0,0 0,0l0 0c1,0 1,-1 1,-1l0 0c-1,1 -1,1 -2,2 -1,0 -1,0 -2,0zm4 -2l0 0c0,0 0,0 0,0l1 0c0,0 0,-1 0,-1l0 0c0,0 0,0 1,0l0 0c0,-1 0,-1 0,-1l0 0c0,0 1,0 1,-1l0 0c0,0 0,0 0,0l0 0c0,-1 0,-1 1,-1l0 0 0 -1 0 0 0 0c0,0 0,0 0,-1l0 0c0,0 1,0 1,0l0 0c-1,0 -1,1 -1,1 -1,2 -3,4 -4,5zm5 -6l0 0c0,-1 0,-1 0,-1l0 0c0,-1 0,-1 0,-1l0 0c0,0 0,-1 0,-1l1 0c-1,1 -1,2 -1,3zm1 -3l0 0c0,0 0,-1 0,-1l0 0c0,0 0,1 0,1zm0 -1l0 0c0,0 0,0 0,-1l0 0c0,1 0,1 0,1zm0 -1l0 0c0,0 0,0 0,-1l0 0c0,0 0,0 0,-1l0 0c0,0 0,0 0,-1l0 0c0,1 0,2 0,3zm0 -3l0 0c0,0 0,0 0,-1l0 0c0,0 0,0 0,-1l0 0c0,1 0,2 0,2zm0 -2l0 0c0,0 0,0 0,-1l0 0c0,1 0,1 0,1zm0 -1l0 0c0,0 0,0 0,-1l0 0c0,1 0,1 0,1zm0 -1l0 0 -1 -1 0 0c0,1 0,1 1,1zm-1 -1l0 0c0,0 0,0 0,-1l0 0c0,1 0,1 0,1zm0 -1l0 0c0,0 0,-1 0,-1l0 0c0,0 -1,-1 -1,-1l0 0c0,0 0,-1 0,-1l0 0c0,0 -1,-1 -1,-1l0 0c0,-1 0,-1 0,-1l0 0c-1,-1 -1,-1 -1,-1l0 0c0,-1 0,-1 -1,-1l0 0 0 -1 0 0 0 0 0 0 0 0 -1 -1 0 0 0 0 0 0 0 0 -1 -1 0 0 0 0 0 0 0 0 -1 0 0 0 0 -1 0 0 -1 0 0 0 0 0 0 0 0 0 0 -1c1,1 3,3 4,5 2,2 3,5 4,7zm-9 -12l0 0 0 0 0 0 0 0 -1 0 0 0 0 0 0 0 -1 0 0 0 0 0 0 -1 -1 0 0 0 0 0 0 0 0 0 -1 0 0 0 0 0c0,0 1,0 1,0 1,1 2,1 3,1zm-4 -1l0 0 0 0 -1 0 0 0 0 0c0,0 1,0 1,0zm-1 0l0 0 0 0 -1 0c1,0 1,0 1,0zm-1 0l0 0 0 0 0 0 0 0zm-1 0l0 0 0 0m0 0l0 0 -1 0 0 0c0,0 1,0 1,0zm-1 0l0 0 0 0 0 1 -1 0 0 0 0 0 0 0c0,0 1,-1 1,-1zm-1 1l0 0 0 0 -1 0 0 0 1 0 0 0zm-1 0l0 0 0 0 0 0c0,0 0,0 0,0zm0 0l0 0 -1 0 0 1 0 0 0 0 -1 0 0 0 0 0 0 0 -1 1 0 0 0 0 0 0 0 0 -1 1 0 0 0 0 0 0 0 0 -1 1 0 0 0 0 0 0 0 0 0 1 0 0 -1 0 0 0 0 1 0 0 0 1 0 0c0,0 -1,0 -1,0l0 0 0 1 0 0c1,-1 1,-3 2,-4 1,-2 3,-3 5,-4zm-7 8l0 0 0 0 0 1 0 0 0 0 0 1 -1 0 0 1 0 0c1,-1 1,-2 1,-3zm-1 3l0 0 0 1 0 0 0 0 0 1c0,-1 0,-2 0,-2zm0 8c0,0 0,-1 0,-1 0,0 0,1 0,1zm0 -2l-1 -1 0 0m0 -1c0,-1 0,-2 0,-3 0,1 0,2 0,3zm1 -4c0,-1 0,-1 0,-2l0 0c0,1 0,1 0,2zm13 -15l0 0 0 0 0 0 0 0zm4 0l0 0 1 0 -1 0 0 0zm6 2l0 0 0 0 0 0 0 0zm1 0l0 0 0 0 0 0 0 0zm2 1l0 0 0 0 0 0 0 0zm1 1l0 0 0 0 0 0 0 0zm1 1l0 0 0 0 0 0 0 0zm1 1l0 0 0 0 0 0 0 0zm1 1l0 0 0 0 0 0 0 0zm1 1l0 0 0 0 0 0 0 0zm2 3l0 0 0 0 0 0 0 0zm1 1l0 0 0 0 0 0 0 0zm1 5l0 0 0 0 0 0 0 0zm0 1l0 0 0 0 0 0zm0 1l0 1 0 0 0 0 0 -1zm-1 4l0 0 0 0 0 1 0 -1zm-8 15l0 0 0 1 0 -1zm-2 2l0 0 0 0 0 0 0 0zm-1 1l0 0 0 0 0 0 0 0zm-3 1l0 1 0 0 0 0 0 -1zm-2 1l0 0 0 0 0 0 0 0zm-2 1l0 0 0 0 0 0 0 0zm-1 0l0 0 0 0 0 0 0 0zm-1 0l0 0 0 0 0 0 0 0zm-2 -1l0 0 0 0 0 0 0 0zm-1 0l0 0 0 0 0 0 0 0zm-1 -1l0 0 0 0 0 0 0 0zm-2 -1l0 0 0 0 0 0 0 0zm-1 -1l0 0 0 0 0 0 0 0zm-1 -1l0 0 0 0 0 0 0 0zm-1 -2l0 0 0 0 0 0 0 0zm-1 -1l0 0 0 0 0 0 0 0zm-1 -1l0 0 0 0 0 -1 0 1zm0 -2l0 0 0 0m-1 -2l0 0 0 0 0 0 0 0zm-1 -4l0 0 0 0 0 0 0 0zm-10 -1l0 0c0,-2 0,-5 0,-7l0 0c0,1 0,1 0,2l0 0c0,0 0,1 0,1l0 1c0,0 0,1 0,1l0 1c0,0 0,1 0,1l0 0 0 1c0,0 1,1 1,1l0 0c0,1 0,1 0,2l0 0c1,0 1,1 1,1l0 0c-1,-1 -1,-3 -2,-5l0 1 0 -1zm0 -2l0 0 0 0 0 0 0 0zm0 -5l0 0 0 0 0 0 0 0zm1 -12l0 0 0 0 0 0 0 0zm33 -11l1 0 0 0 0 0 -1 0zm19 27l0 1 0 0 0 0 0 -1zm-1 8l0 0 0 0 0 0 0 0zm-5 8l0 0 0 0 0 0 0 0zm-18 11l0 0 0 0 0 0 0 0zm-1 0l0 0 0 0 0 0 0 0zm-1 0l-1 0 0 0 0 0 1 0zm-1 0l0 0 0 0 -1 0 1 0zm-1 0l0 0 0 0 0 0 0 0zm-23 -19l0 0c0,1 0,1 1,1l0 0c0,1 0,1 0,2l0 0c0,-1 -1,-2 -1,-3zm1 3l0 0c0,0 1,1 1,1l0 0c0,0 -1,-1 -1,-1zm1 1l0 0c0,0 0,1 0,1l0 0c0,0 0,-1 0,-1zm1 1l0 0c0,1 0,1 0,1l0 0c0,1 1,1 1,1l0 0c-1,0 -1,-1 -1,-2zm1 2l0 0c0,1 0,1 1,1l0 0c0,1 0,1 0,1l0 0c0,0 -1,-1 -1,-2zm1 2l1 0c0,1 0,1 0,1l0 0c1,0 1,1 1,1l0 0c0,-1 -1,-1 -2,-2zm2 2l0 0c0,0 1,0 1,1l0 0c0,0 0,0 1,0l0 0c0,1 0,1 1,1l0 0c0,0 0,0 0,1l0 0c-1,-1 -2,-2 -3,-3zm3 3l1 0c0,0 0,0 0,0l0 0 1 0c0,0 0,0 0,1l0 0c1,0 1,0 1,0l0 0c0,0 1,0 1,0l0 0c0,1 1,1 1,1l0 0c-1,-1 -2,-1 -3,-2 -1,0 -1,0 -2,0zm5 2l0 0c0,0 0,0 1,0l0 0c0,0 -1,0 -1,0zm1 0l0 0c0,0 0,0 1,0l0 0c0,0 0,0 1,0l0 0c0,0 0,1 1,1l0 0c0,0 0,0 0,0l1 0c0,0 0,0 0,0l0 0c1,0 1,0 1,0l0 0c1,0 1,0 1,0l0 0c1,0 1,0 1,0l0 0 0 0c1,0 1,0 1,0l0 0c0,-1 1,-1 1,-1l0 0c0,0 1,0 1,0l0 0c0,0 0,0 1,0l0 0c0,0 0,0 1,0l0 0c0,0 0,0 0,-1l1 0c0,0 0,0 0,0l0 0 1 0 0 0c1,0 1,0 1,-1l0 0 1 0 0 0 0 0 1 0 0 -1 0 0c1,0 1,0 1,0l0 0 0 0c0,0 1,-1 1,-1l0 0 1 0 0 0 0 -1 0 0 1 0 0 0 1 -1 0 0 0 0 0 -1 1 0 0 0 0 -1 0 0 1 0 0 -1 0 0 0 0 1 -1 0 0c0,0 0,0 0,0l0 0c0,-1 1,-1 1,-1l0 0c0,0 0,0 0,-1l0 0c0,0 0,0 0,0l0 0c1,-1 1,-1 1,-1l0 0c0,0 0,-1 0,-1l0 0c0,0 0,0 0,0l0 -1c0,0 0,0 0,0l0 0c0,0 0,-1 0,-1l0 0 0 0c1,-1 1,-1 1,-2l0 0c0,-1 0,-1 0,-2l0 0c0,-1 0,-1 0,-2l0 0c0,2 0,4 -1,6 0,5 -4,9 -9,13 -3,2 -7,3 -11,4 -2,0 -5,0 -7,-1zm28 -22l0 0c0,0 0,-1 0,-1l0 -1c0,1 0,2 0,2zm0 -2l0 0c0,0 0,-1 0,-1l0 0c0,-1 0,-1 0,-2l0 0c0,-1 0,-1 0,-2l0 0c0,2 0,4 0,5zm0 -5l0 0c-1,0 -1,-1 -1,-1l0 0c0,-1 0,-1 0,-2l0 0c0,0 0,-1 0,-1l-1 0c0,-1 0,-1 0,-2l0 0c1,2 1,4 2,6zm-2 -6l0 0c0,0 0,-1 -1,-1l0 0c1,0 1,1 1,1zm-1 -1l0 0c0,-1 0,-1 0,-1l0 -1c0,0 -1,0 -1,-1l0 0c0,0 0,0 -1,-1l0 0c0,0 0,-1 0,-1l0 0c-1,0 -1,-1 -1,-1l0 0c-1,0 -1,-1 -1,-1l0 0c0,0 -1,-1 -1,-1l0 0c0,0 -1,-1 -1,-1l0 0c0,0 -1,0 -1,-1l0 0c0,0 -1,0 -1,0l0 -1 0 0c0,0 -1,0 -1,0l0 0c0,0 -1,-1 -1,-1l0 0c0,0 -1,0 -1,0l0 0c-1,-1 -1,-1 -1,-1l0 0c-1,0 -1,0 -1,0l0 0c-1,0 -1,-1 -2,-1l0 0c0,0 0,0 -1,0l0 0c0,0 -1,0 -1,0l0 0c0,0 -1,0 -1,-1l0 0c-1,0 -1,0 -1,0l0 0c-1,0 -1,0 -1,0l0 0 -1 0c0,0 0,0 -1,0l0 0c0,0 0,0 -1,0l0 0c0,0 -1,0 -1,0l0 0c0,0 -1,0 -1,1l0 0c-1,0 -1,0 -1,0l0 0c-1,0 -1,0 -1,0l-1 0c0,0 0,0 -1,0l0 0c0,1 0,1 -1,1l0 0c0,0 0,0 -1,0l0 0c0,1 -1,1 -1,1l0 0c0,0 0,0 -1,0l0 1 0 0c0,0 -1,0 -1,0l0 0c0,1 -1,1 -1,1l0 0c0,0 0,1 -1,1l0 0c0,0 0,0 -1,1l0 0c0,0 0,0 0,1l-1 0c0,0 0,0 0,1l0 0c-1,0 -1,1 -1,1l0 0c0,0 0,1 -1,1l0 0c0,1 0,1 0,1l0 0c2,-4 4,-7 7,-9 4,-2 8,-3 13,-3 4,0 8,2 12,4 3,3 6,6 8,11zm-40 -3l0 0c-1,1 -1,1 -1,2l0 0c0,0 0,0 0,1l0 0c-1,0 -1,1 -1,1l0 0c0,1 0,1 0,2l0 0c0,0 0,1 -1,1l0 1c1,-3 2,-6 3,-8zm-3 8l0 0c0,0 0,1 0,1l0 0c0,1 0,1 0,2l0 0c0,-1 0,-2 0,-3zm-23 47l0 -1 0 0 0 -1 0 0 0 0 -1 -1 0 -1 0 0 0 0 -1 -1c0,-1 0,-1 0,-2l0 0 -1 -1 0 0 0 -1 -1 0 0 -1 0 -1 0 0 -1 0 0 0 0 -1 -1 -1 0 0c-1,-3 -3,-7 -4,-10l0 0c-1,-1 -2,-3 -3,-4l0 -1c0,0 0,-1 -1,-2l0 0 0 -1 0 0 -1 -1 0 0c0,-1 0,-1 0,-2l-1 0 0 -1c3,6 6,12 9,18 3,6 5,12 7,17l-5 -16c-1,-4 -2,-7 -3,-9 0,-2 -1,-5 -3,-10l-4 -13c0,0 0,0 0,0l1 0 1 -1 1 0 -3 1 1 3 0 1 2 5 0 0c3,9 4,12 5,15l0 1 0 1 1 1 3 11 1 1 0 1 1 2 1 6 7 -3c-1,0 -1,0 -1,1l0 0 0 0 -1 0 0 0 0 0 0 0 0 0 0 0 0 0 0 0 0 0 0 0 0 0c0,0 0,0 0,0 0,0 0,0 1,0 0,0 0,-1 1,-1l-7 3 5 -2 0 0 0 0 -5 2zm-16 -35c0,0 0,-1 0,-1l0 0m0 -1l-1 0 0 0 0 0 1 0zm-2 -4l0 0 0 0 0 0 0 0zm0 -2l0 -1 0 0 0 0 0 1zm-1 -2l0 0 0 0 0 0 0 0zm2 -7l0 0 0 0 0 0 0 0zm7 -2l0 0c1,0 2,1 2,1l0 0 0 0 0 0c0,0 0,0 0,0 0,0 0,0 0,-1 -1,0 -1,0 -2,0l0 0zm6 -4l0 0 0 0 0 0 0 0zm10 -4l0 1 0 0 0 0 0 -1zm8 7l0 0 0 0 0 0 0 0zm0 2l0 0 0 0 0 0 0 0zm0 1l0 0 0 0 0 0 0 0zm-5 5l0 0 0 0 0 0 0 0zm-4 1l0 0 0 0c0,0 0,0 -1,0l0 0c0,0 0,0 0,0l-1 0c0,0 0,0 0,0l0 0c0,0 -1,0 -1,0l0 0c0,0 0,1 0,1l0 0c0,-1 2,-1 3,-1l0 0zm-4 1l0 0c0,0 0,0 0,0l0 0c0,0 0,0 0,0zm0 0l0 0c0,0 0,0 0,0l-1 0c0,0 0,1 0,1l0 0c0,0 0,0 0,0l0 0c0,0 -1,0 -1,1l0 0c0,0 0,0 0,0l0 0c0,0 0,0 0,1l0 0c0,0 0,0 0,0l0 0c0,0 0,0 0,1l0 0c-1,0 -1,0 -1,0l0 0c0,1 0,1 0,1l0 0c0,0 0,0 0,0l0 1c0,0 0,0 0,0l0 0c0,0 0,1 0,1l0 0 1 0 0 1 0 0 0 0 0 0 0 1 0 0 0 1 0 0 0 0 0 1 0 0 1 0 0 1 0 0 0 1 0 0c0,0 0,1 1,1l0 1 0 0 0 1 0 0c1,2 2,4 3,6l0 0c0,1 1,2 1,2l0 1 0 0 0 0c1,1 1,2 1,3 0,-2 -1,-4 -2,-7 -3,-5 -5,-10 -5,-14 -1,-3 0,-5 2,-7zm6 28l0 1 0 0 0 0 0 1 0 0 0 -1 0 0 0 -1zm0 3l1 0 0 0 -1 0zm1 1l0 1 0 0 0 0 0 -1zm1 3l0 0 0 0 0 1 0 -1zm0 1l0 0 0 0 0 0 0 0zm0 1l0 0 0 0 0 0 0 0zm0 0l0 0 0 0 0 0 0 0zm0 1l0 1 0 0 0 0 0 -1zm0 1l0 0 0 0 0 0 0 0zm-1 2l0 0 0 0 0 -1 0 0 0 0 0 0m-1 -1c-1,-4 -4,-9 -6,-14 2,4 4,8 5,11 0,1 1,2 1,3zm-7 -17c0,-1 -1,-2 -1,-3 0,1 1,2 1,3zm-1 -3c0,-1 0,-1 -1,-2 1,1 1,1 1,2zm-3 -14l0 0 0 0 0 0 0 0zm1 -3l0 0 0 0 0 0 0 0zm0 -1l0 0 0 0 0 0 0 0zm0 -1l0 0 0 0 0 0 0 0zm1 -1l0 0 0 0 0 0 0 0zm1 -1l0 0 0 0 0 0 0 0zm0 -1l0 0 0 0 0 0 0 0zm1 0l0 0 0 0 0 0 0 0zm1 -1l0 0 0 0 0 0 0 0zm6 -2l0 0 0 0 0 0zm0 0l0 -1 0 0c0,-1 0,-1 0,-2 0,0 0,0 -1,0l0 0 0 0 0 0 -1 0 0 0 0 0c0,0 0,0 -1,0 0,0 0,0 0,0 0,0 -1,0 -1,1 0,0 0,0 0,0 -1,0 -2,1 -3,1 0,0 0,0 0,1 -2,1 -4,3 -5,5l0 1 0 0c-1,1 -1,3 -2,3 0,1 0,1 0,1l0 0c0,0 1,-1 1,-3 1,0 1,-1 1,-1 0,0 0,0 0,0l0 0 0 -1c1,-2 3,-4 4,-5 2,-2 5,-3 8,-3l0 0c0,0 0,0 0,0 0,1 0,1 0,3l0 0 0 0zm-14 10l0 0 -1 0 0 0c0,0 0,0 0,0l0 0 0 0 0 0 0 0c0,0 0,0 0,0l0 0 0 -1 0 0 0 0 0 0 0 0 -1 0 0 -1 0 0 0 0c-1,-1 -1,-3 -2,-6l-1 0 1 0 0 0 0 0c0,0 0,0 0,0 2,6 3,8 4,8zm15 37c0,0 -1,1 -1,1l1 -1 0 0zm0 0l1 0 -1 1 0 -1zm-65 5l0 0c1,0 1,1 1,1l0 0c0,0 1,1 1,1l0 0c0,0 1,1 1,1l0 0c0,0 0,1 1,1l0 0c0,0 0,0 1,1l0 0c-2,-2 -3,-3 -5,-5l0 0 0 0 0 0 0 0c0,-1 -1,-2 -1,-3l0 0 0 1 0 0 1 1 0 0 0 1 0 0zm5 5l0 0c0,0 0,0 0,1l1 0c0,0 0,0 0,0l1 0c0,0 0,1 0,1l0 0c1,0 1,0 1,0l0 0c0,1 1,1 1,1l0 0c0,0 1,0 1,0l0 0c-2,0 -4,-2 -5,-3zm5 3l0 0c0,0 0,1 1,1l0 0c0,0 0,0 0,0l1 0c0,0 0,0 0,0l1 0c0,0 0,0 0,0l0 0c1,0 1,0 1,0l0 0c-1,0 -3,0 -4,-1zm4 1l0 0c0,0 1,0 1,0l0 0c0,1 0,1 1,0l0 0c0,0 0,0 0,0l0 0c0,1 -1,1 -2,0zm2 0l0 0 0 0c1,0 1,0 1,0l0 0c0,0 1,0 1,0l0 0c0,0 0,0 0,0l1 0c0,0 0,0 0,0l0 0c0,0 1,-1 1,-1l0 0c0,0 0,0 0,0l1 0c0,0 0,0 0,0l0 0c0,-1 1,-1 1,-1l0 0c0,0 0,0 0,0l0 0c0,0 1,-1 1,-1l0 0c0,0 0,0 0,0l0 0 0 0c1,-1 1,-1 1,-1l0 0c0,0 0,0 0,0l0 -1c0,0 1,0 1,0l0 0c0,0 0,-1 0,-1l0 0c0,0 0,0 0,0l1 -1c0,0 0,0 0,0l0 0c0,-1 0,-1 0,-1l0 0c0,0 0,-1 0,-1l0 0c0,0 1,0 1,-1l0 0c0,0 0,0 0,0l0 0 0 -1 0 0 0 0c0,-1 0,-1 0,-1l0 0c0,0 0,-1 0,-1l0 0c0,1 0,1 0,2 -1,3 -2,6 -4,8 -2,2 -4,3 -7,3l0 0zm11 -13l0 0c0,0 0,-1 0,-1l0 0c0,0 0,1 0,1zm0 -1l0 0 0 -1 0 0c0,0 0,0 0,-1l0 0c0,1 0,2 0,2zm0 -2l0 0c0,0 0,0 0,0l0 -1c0,1 0,1 0,1zm0 -1l0 0c0,0 0,0 0,0l0 -1c0,1 0,1 0,1zm0 -1l0 0c0,0 0,0 0,0l0 -1 -1 0 0 0c1,0 1,1 1,1zm-1 -1l0 0c0,-1 0,-1 0,-1l0 0c0,0 0,0 0,1zm0 -1l0 0c0,-1 0,-1 0,-1l0 0c0,0 0,0 0,1zm0 -1l0 0c0,-1 -1,-1 -1,-1l0 0c0,-1 0,-1 0,-1l0 0c0,0 -1,-1 -1,-1l0 0c0,0 0,-1 0,-1l0 0c0,0 -1,0 -1,-1l0 0c0,0 0,0 -1,-1l0 0c0,0 0,0 0,-1l0 0c-1,0 -1,0 -1,0l0 -1c0,0 -1,0 -1,0l0 0c0,-1 -1,-1 -1,-1l0 0c0,-1 -1,-1 -1,-1l0 0c0,0 0,-1 -1,-1l0 0 0 0 0 0 0 0 -1 0 0 0 0 -1 0 0 -1 0 0 0 0 0 0 0 -1 0 0 0 0 -1 0 0 -1 0 0 0 0 0 0 0c1,1 3,1 4,2 4,3 7,7 9,11zm-13 -13l0 0 -1 0 0 0 0 0 0 0 -1 0 0 0 0 0 0 0 -1 0 0 0 0 0 0 0 -1 0 0 0 0 0 0 0 -1 0 0 0 0 0 0 0 0 0c-1,0 -1,0 -1,0l0 0 0 0 0 0c-1,0 -1,0 -1,0l0 0 0 0 0 0c-1,0 -1,0 -1,1l0 0 0 0 0 0c-1,0 -1,0 -1,0l0 0 -1 0 0 0 0 1 0 0 -1 0 0 0 0 0 0 0 0 0 -1 1 0 0 0 0 0 0 0 0 0 1 -1 0 0 0 0 0 0 0 0 1 0 0 -1 0 0 0 0 1 0 0c1,-2 2,-3 3,-4 1,-1 4,-2 6,-2 1,0 3,0 5,0zm-14 6l0 0 0 0 0 0 -1 1 0 0 0 0 0 0 0 1 0 0 0 0 0 1 0 0 0 0 0 0 0 1 -1 0c1,-1 1,-1 1,-1 0,-1 0,-2 1,-3zm-2 4l0 0 0 0 0 0c0,0 0,0 0,0zm0 0l0 0 0 1 0 0 0 1 0 0c0,-1 0,-1 0,-2zm0 2l0 0 0 0 0 0c0,0 0,0 0,0zm0 0l0 1 0 0 0 0 0 1 0 0 0 1 0 0 0 0 0 1 0 0 1 0c-1,-1 -1,-2 -1,-4zm1 4l0 1 0 0 0 0c0,0 0,0 0,-1zm0 1l0 0 0 1 0 0 0 1 0 0c0,-1 0,-1 0,-2zm0 2l0 0 0 1 0 0 1 1 0 0 0 1 0 0c0,-1 -1,-2 -1,-3zm2 5c0,-1 -1,-1 -1,-2 0,1 1,1 1,2zm-1 -2c0,0 0,0 -1,-1 1,1 1,1 1,1zm-2 -6c0,0 0,-1 0,-1 0,0 0,1 0,1zm-1 -2c0,0 0,0 0,-1l0 0 0 0 0 0c0,-1 0,-2 0,-2l0 -1c0,1 0,2 0,3m13 -17l0 0 0 0 0 0 0 0zm5 0l1 0 0 0 0 0 -1 0zm5 0l0 1 0 0 0 0 0 -1zm2 1l0 0 0 0 0 0 0 0zm1 0l0 0 0 0 0 0 0 0zm1 1l0 0 0 0 0 0 0 0zm1 1l0 0 0 0 0 0 0 0zm1 0l0 0 0 0 0 0 0 0zm4 5l0 0 0 0 0 0 0 0zm2 2l0 0 0 0 0 1 0 -1zm0 2l0 0 0 0 0 0 0 0zm1 7l0 0 0 1 0 0 0 -1zm-11 23l0 0 0 0 0 0 0 0zm-3 1l0 0 0 0 0 0 0 0zm-2 0l0 0 0 0 0 -1 0 1zm-1 -1l0 0 0 0 0 0 0 0zm-2 0l0 0 0 0 0 -1 0 1zm-1 -1l0 0 0 0 -1 0 1 0zm-3 -2l0 0 0 0 0 0 0 0zm-1 -1l0 0 0 0 0 0 0 0zm-15 -5l-1 0m-2 -5l0 0 0 0 0 0 0 0zm-1 -2l0 0 0 0 0 0 0 0zm-1 -5l0 0 0 0 0 0 0 0zm-1 -2l0 0 0 0 0 0 0 0zm1 -11l0 0 0 0 0 0 0 0zm1 -3l0 0 0 0 0 0 0 0zm1 -1l0 0 0 0 0 0 0 0zm1 -1l0 0 0 0 0 0 0 0zm11 -8l0 0 0 0 0 0 0 0zm2 0l0 0 0 0 0 0 0 0zm20 0l0 0 0 0 0 0 0 0zm16 12l0 0 0 0 0 0 0 0zm1 1l0 0 0 0 0 0 0 0zm2 5l0 0 0 0 0 0 0 0zm0 2l0 0 0 0 0 0 0 0zm0 1l0 0 0 0 0 1 0 -1zm0 2l0 0 0 0 0 0 0 0zm0 2l0 0 0 0 0 0 0 0zm0 4l0 0 0 0 0 0 0 0zm-1 2l0 0 0 0 0 0 0 0zm-2 7l0 0 0 0 0 0 0 0zm-47 1l0 -1m0 0l0 1c0,0 0,0 0,1l1 0c0,0 0,1 1,1l0 0c0,0 0,1 1,1l0 0c0,1 0,1 1,1l0 0c0,1 0,1 1,1l0 0c0,1 0,1 1,1l0 0c0,1 0,1 1,1l0 0c0,1 0,1 1,1l0 0c0,0 0,1 1,1l0 0c0,0 0,0 1,1l0 0c0,0 0,0 1,0l0 0c0,0 0,1 1,1l0 0c0,0 0,0 1,0l0 0c0,0 1,1 1,1l0 0c0,0 1,0 1,0l0 0c0,0 1,0 1,0l0 0c0,1 1,1 1,1l0 0c0,0 1,0 1,0l0 0 0 0 1 0 0 0c0,0 1,0 1,0l0 0c0,0 0,0 1,0l0 0c-1,0 -2,0 -3,0 -6,-1 -12,-5 -18,-14l0 1m21 13l0 0c0,0 0,0 1,0l0 0c-1,0 -1,0 -1,0zm1 0l0 0c0,0 0,0 1,0l0 0c-1,0 -1,0 -1,0zm1 0l0 0c0,0 0,0 1,0l0 0c-1,0 -1,0 -1,0zm1 0l0 0c0,0 0,0 1,0l0 0c0,0 0,0 0,0l1 0c-1,0 -2,0 -2,0zm2 0l0 0c0,0 0,0 0,0l0 0c0,0 0,0 0,0zm0 0l1 0 0 -1 0 0c0,0 0,1 -1,1zm1 -1l0 0c1,0 1,0 1,0l0 0c1,0 1,0 1,0l0 0c0,0 -1,0 -2,0zm2 0l0 0 1 0 0 -1c0,1 -1,1 -1,1zm1 -1l0 0 1 0 0 0c0,0 -1,0 -1,0l0 0zm1 0l0 0c0,0 0,0 0,0l1 0c0,-1 0,-1 0,-1l0 0 1 0 0 0 1 -1 0 0c0,0 0,0 0,0l1 0 0 -1 0 0 1 0 0 -1c0,0 0,0 1,0l0 0 0 -1 0 0 1 0 0 -1 0 0 1 0 0 -1 0 0 0 0 1 0 0 -1 0 0 0 0 1 -1 0 0 0 -1 0 0 0 0 1 -1 0 0 0 0 0 -1 0 0 1 -1 0 0 0 0 0 -1 0 0 0 0 0 -1 0 0 1 -1 0 0c0,0 0,0 0,0l0 -1 0 0 0 0 0 -1 0 0c0,0 0,-1 0,-1l0 0c0,0 0,0 0,-1l0 0c0,0 0,0 0,0l0 0c0,-1 0,-1 0,-1l0 0c0,0 0,-1 0,-1l0 0 0 0c0,0 0,-1 -1,-2l0 0c0,0 0,-1 0,-2l0 0c0,0 0,-1 0,-1l-1 0c1,1 1,3 2,5 1,5 -1,11 -5,15 -2,3 -5,5 -8,7zm11 -27l0 -1c0,0 0,-1 0,-1l0 0c0,-1 -1,-1 -1,-2l0 0c1,1 1,2 1,4zm-1 -4l0 0c0,0 0,-1 0,-1l0 0c-1,-1 -1,-1 -1,-2l0 0c0,1 1,2 1,3zm-1 -3l0 0c0,0 -1,-1 -1,-1l0 0c0,-1 -1,-1 -1,-2l0 0c0,0 0,0 -1,-1l0 0c0,0 0,-1 -1,-1l0 0c2,1 3,3 4,5zm-4 -5l0 0c0,-1 0,-1 -1,-1l0 0c0,-1 0,-1 -1,-1l0 0c1,0 2,1 2,2zm-2 -2l0 0c0,-1 0,-1 -1,-1l0 0c1,0 1,0 1,1zm-1 -1l0 0c0,-1 0,-1 -1,-1l0 0c1,0 1,0 1,1zm-1 -1l0 0c0,0 0,-1 -1,-1l0 0c0,0 -1,0 -1,-1l0 0c0,0 -1,0 -1,0l0 0c-1,-1 -1,-1 -1,-1l0 0c-1,0 -1,0 -1,0l0 0c-1,-1 -1,-1 -2,-1l0 0c0,0 0,0 -1,0l0 0c3,1 6,2 8,4zm-8 -4l0 0 0 0c0,0 -1,-1 -1,-1l0 0c0,0 -1,0 -1,0l0 0c-1,0 -1,0 -1,0l-1 0c0,0 0,0 -1,0l0 0c0,0 -1,0 -1,0l0 0c0,0 -1,0 -1,0l0 0c2,0 5,0 7,1l0 0zm-7 -1l0 0c-1,0 -1,0 -1,0l0 0c-1,0 -1,0 -2,0l0 0c0,0 0,0 -1,0l0 0c0,0 -1,0 -1,0l0 0c0,0 -1,0 -1,1l0 0 0 0c-1,0 -1,0 -1,0l0 0c-1,0 -1,0 -1,0l0 0c-1,1 -1,1 -1,1l0 0c-1,0 -1,0 -1,0l-1 0c0,1 0,1 0,1l-1 0c0,0 0,0 0,1l-1 0c0,0 0,0 0,0l0 0c-1,1 -1,1 -1,1l0 0c-1,0 -1,1 -1,1l0 0c-1,0 -1,1 -1,1l0 0 -1 0 0 1 0 0c0,0 0,0 0,1l-1 0c0,0 0,0 0,1l0 0c0,0 -1,1 -1,1l0 0c0,0 0,1 0,1l0 0c0,0 -1,1 -1,1l0 0c0,1 0,1 0,1l0 1c0,0 0,0 -1,1l0 0c0,0 0,1 0,1l0 0c0,1 0,1 0,1l0 1c0,0 0,0 0,1l0 0c0,-5 2,-9 4,-13 3,-3 7,-5 11,-6 2,-1 4,-1 6,-1zm-21 20l0 0c0,0 0,1 0,1l0 0c0,0 0,-1 0,-1zm0 1l0 0c0,1 0,1 0,2l0 0c0,0 0,1 0,1l0 0c0,1 0,1 0,2l0 0c0,-2 0,-3 0,-5zm0 5l0 0c0,1 0,1 1,2l0 0c0,0 0,1 0,1l0 0c0,-1 -1,-2 -1,-3zm1 3l0 0c0,1 0,1 0,2l0 0c0,-1 0,-1 0,-2zm0 2l0 0c1,1 1,1 1,2l0 0c0,0 0,1 1,1l0 1c0,0 0,1 0,1l1 0m-41 48c-1,0 -1,-1 -1,-1 0,0 0,1 1,1zm-1 -1c0,-1 -1,-1 -1,-1l0 0c0,-2 -1,-4 -1,-6l0 0c0,-2 0,-6 0,-10l0 0 0 0c0,9 0,14 2,17zm-2 -17l0 0 0 0 0 0 0 0 0 0 0 0zm0 0l0 0 0 0m1 0l0 0 -1 0 0 0m1 0l0 0 0 0c0,0 1,0 1,0l0 0c2,0 5,0 8,0 -1,0 -3,0 -4,0 -2,0 -4,0 -5,0zm11 0c6,0 13,1 20,1 -7,0 -14,-1 -20,-1zm20 1c5,1 10,1 12,1l5 -7 0 0 -2 0 -1 0 -1 0 -2 0 0 0 -3 0 0 0c-2,0 -4,0 -6,0 5,0 10,0 15,0l0 0c0,0 0,0 0,0l-5 7 0 0 -1 0c-2,0 -6,0 -11,-1zm2 -6c-11,0 -19,1 -25,1 3,0 6,0 10,0 4,0 9,-1 15,-1zm-25 1l-1 0 0 0 0 0 1 0zm-3 0l-1 0 0 0 0 0 1 0zm-2 0l0 0 0 0 0 0 0 0zm-5 -2l0 0 0 0 0 0 0 0zm-2 -4l0 0 0 0 0 0 0 0zm-1 -2l0 0 0 0 0 0 0 0zm0 -1l0 0 0 0 0 0zm-1 -6c0,-1 0,-1 0,-2 0,1 0,1 0,2zm0 -2c0,-2 0,-3 0,-5 0,2 0,3 0,5zm0 -5l-1 -4 0 -1 0 -1 0 0 0 0 0 0c0,-3 0,-6 0,-9l0 0 0 -1 -3 2 0 1 1 2 0 1 0 2 0 1 0 2 0 1 0 1 0 1 0 1 1 3 0 0c0,7 1,13 1,17l0 -3c-1,-7 -2,-17 -3,-30l0 0 0 0 3 -2 0 0c0,0 0,0 0,0 0,4 0,9 0,12l1 4zm-1 20c1,2 1,4 1,6 0,-2 0,-4 -1,-6zm1 6c0,1 0,3 0,4 0,-1 0,-3 0,-4zm-3 11l0 0 0 -1 0 1zm-4 -3c-3,-2 -6,-6 -12,-11l0 0 -2 -1 0 0 -1 -1 0 0 -1 -1 0 0 -2 -2 0 0c-1,-1 -3,-2 -4,-4l-5 6 20 17 -4 -3 -16 -14c0,0 0,0 0,0l5 -6c0,0 0,0 0,0 5,5 10,9 14,13 3,3 6,5 8,7zm-1 8l2 2 -1 -1 -1 -1zm12 -67l0 0 0 -1 0 0 0 0 0 0m502 45l0 0 1 0 0 0 0 0 0 0 0 0c0,0 0,0 0,0l0 0 0 0c-7,5 -11,9 -15,12 -6,4 -8,6 -11,8 -3,2 -6,4 -11,8 -5,3 -10,7 -18,12 0,0 0,0 0,0l-5 -7 0 1m0 -29c-1,0 -1,0 -1,0l1 1c0,0 0,0 0,-1zm17 -21l0 0c0,0 0,1 0,1m-7 22l1 0 0 0m-30 -26l0 0 0 0 0 0zm0 0l0 0 1 0 0 0 -1 0 0 0zm24 30l0 0 0 0 0 0zm-59 -75l0 0 1 0m7 4l0 0c1,1 2,2 2,3m-3 -35l0 0 -1 1 0 0 0 0m-3 9l0 0m-23 17c0,0 0,1 0,1 -6,13 -11,20 -14,24 -1,2 -2,3 -2,4m-2 -21l0 0 -1 0 0 0m1 -26l0 0 0 0c0,0 0,-1 0,-1l-1 0m-11 -3l0 0m2 34c2,0 3,1 4,1 0,1 1,2 2,2l0 0 0 -1 -6 -2zm6 2l0 0 1 0 -1 0zm-126 -72l0 0m0 0l1 0m16 -1l0 0m34 9l0 0 0 -1m3 -6l0 0 1 0m0 -1l0 0m1 -1l0 0m-53 71l0 0 -1 0 0 0 -1 0 0 0m57 -58c0,0 0,1 0,1 0,0 0,0 0,0l-1 0 0 0 0 1m13 58l0 0c0,0 0,0 0,0l0 -1 0 0m3 -68c0,0 0,0 0,0m-18 -2l0 0 -1 0 0 1m4 10l0 0 0 0 1 -1 0 0m-52 59l0 0 0 0 0 0zm-43 -55l0 -1 0 0m0 -4l0 0 0 -1 0 0m0 -7l0 0m20 67l0 0m-1 3l0 0m-3 -72l0 0 0 0 0 0 0 0 0 -1c0,0 -1,0 -1,0l0 0m-15 4l0 0 0 0 0 1 0 0m0 3l0 0 0 1m-41 57l0 0m-3 -12l0 0 0 0 0 0 0 1 0 0m11 -19l0 0 1 0 0 0m-37 54l0 0c0,1 1,1 1,2l0 0m0 -1l0 0c0,-1 1,-1 1,-1m-25 -29l0 0m24 31c0,0 0,0 -1,0 0,1 0,1 0,1l1 -1 0 0zm1 0l-1 0 0 1 1 -1zm-70 -6l0 0 0 1 1 0m-48 44l1 0 0 0"/>
  </g>
  <g>
   <path class="fil4 str0" d="M58 173l-55 -46 6 -7 27 22 -5 -50 9 -10 3 42 53 3 -8 10 -44 -4 1 17 19 15 -6 8m29 -70c-5,-8 -7,-15 -4,-22 1,-6 5,-10 11,-13 6,-4 12,-5 18,-3 7,2 12,6 16,13 3,6 5,11 5,15 1,4 0,8 -3,12 -2,4 -5,7 -9,9 -6,4 -12,5 -18,3 -7,-1 -12,-6 -16,-14m7 -4c4,6 7,9 12,10 4,2 8,1 12,-1 3,-2 6,-5 6,-10 1,-4 0,-9 -4,-15 -3,-6 -7,-9 -11,-10 -4,-2 -8,-1 -12,1 -3,2 -6,6 -7,10 0,4 1,9 4,15m57 -1l-17 -49 7 -3 3 8c1,-5 2,-8 3,-9 1,-2 3,-3 5,-4 2,-1 6,-1 9,0l0 8c-3,0 -5,0 -7,1 -2,1 -3,2 -4,3 -1,2 -2,4 -2,6 1,3 1,7 3,10l9 26 -9 3m23 -37c-2,-9 -1,-16 4,-22 3,-5 8,-8 14,-9 7,-1 14,0 19,3 5,4 9,10 11,18 1,6 1,12 0,16 -1,4 -3,7 -7,10 -3,3 -7,5 -11,6 -8,1 -14,0 -19,-3 -5,-4 -9,-10 -11,-19m9 -1c1,6 4,11 7,13 4,3 8,4 12,3 4,-1 8,-3 10,-7 2,-4 2,-9 1,-16 -1,-6 -4,-11 -7,-13 -4,-3 -8,-4 -12,-3 -4,1 -8,3 -10,7 -2,4 -2,9 -1,16m54 16l-8 -71 9 -1 8 71 -9 1m24 -3l3 -72 14 1 15 52c1,4 2,8 3,10 1,-2 2,-6 4,-11l19 -49 13 1 -3 71 -9 0 3 -60 -24 59 -9 -1 -17 -62 -3 61 -9 0m120 -1l9 3c-3,5 -7,8 -11,10 -4,2 -10,2 -15,1 -8,-2 -13,-6 -16,-11 -3,-6 -4,-13 -2,-21 2,-8 6,-14 11,-18 6,-4 12,-4 19,-3 7,2 12,6 15,11 3,6 3,13 1,21 0,1 0,1 0,2l-38 -9c-1,6 0,10 2,14 2,4 5,6 9,7 3,1 6,1 9,-1 2,-1 5,-3 7,-6m-25 -21l29 7c0,-4 0,-8 -1,-10 -2,-4 -5,-7 -10,-8 -4,-1 -7,0 -11,2 -3,2 -5,5 -7,9m48 47l-8 -4 32 -64 8 4 -12 23c6,-3 11,-3 16,0 3,1 6,3 8,5 2,3 3,5 4,8 0,3 0,6 0,10 -1,3 -2,7 -3,10 -4,8 -9,13 -15,16 -6,2 -12,2 -18,-1 -5,-3 -9,-7 -9,-13l-3 6m11 -24c-3,6 -4,10 -3,13 0,6 2,9 7,11 3,2 7,2 11,0 4,-2 7,-5 10,-11 3,-6 4,-12 3,-16 -1,-4 -3,-7 -7,-8 -3,-2 -7,-2 -11,0 -4,2 -7,5 -10,11m69 56l6 7c-5,3 -9,5 -14,4 -5,0 -10,-2 -14,-6 -6,-5 -9,-11 -9,-17 -1,-7 2,-13 8,-19 5,-7 11,-10 18,-11 6,-1 12,1 18,6 5,4 8,10 8,16 0,7 -3,13 -8,20 0,0 -1,1 -2,1l-29 -25c-3,5 -5,9 -5,13 0,4 2,8 5,11 3,2 5,3 8,3 3,0 6,-1 10,-3m-13 -29l22 19c3,-4 4,-7 4,-10 0,-4 -2,-8 -5,-11 -3,-2 -6,-4 -10,-3 -4,0 -8,2 -11,5m14 58l60 -38 5 7 -60 39 -5 -8"/>
  </g>
  <path class="fil1 str1" d="M274 207c1,-1 0,-120 0,-122l0 -2c2,9 3,65 3,75l0 0c-1,29 -1,15 -2,44 1,2 1,4 -1,5z"/>
 </g>
</svg>
