<?xml version="1.0" encoding="UTF-8"?>
<!DOCTYPE svg PUBLIC "-//W3C//DTD SVG 1.1//EN" "http://www.w3.org/Graphics/SVG/1.1/DTD/svg11.dtd">
<!-- Creator: CorelDRAW X8 -->
<svg xmlns="http://www.w3.org/2000/svg" xml:space="preserve" width="945px" height="945px" version="1.1" style="shape-rendering:geometricPrecision; text-rendering:geometricPrecision; image-rendering:optimizeQuality; fill-rule:evenodd; clip-rule:evenodd"
viewBox="0 0 945 945"
 xmlns:xlink="http://www.w3.org/1999/xlink">
 <defs>
  <style type="text/css">
   <![CDATA[
    .fil0 {fill:#2B2A29}
    .fil1 {fill:#2B2A29;fill-rule:nonzero}
   ]]>
  </style>
 </defs>
 <g id="Слой_x0020_1">
  <metadata id="CorelCorpID_0Corel-Layer"/>
  <g id="_2194877298528">
   <path class="fil0" d="M240 409l0 0zm0 0c1,1 4,2 6,3 5,2 15,4 21,3 11,-2 28,-3 36,-14 0,-1 1,-2 1,-3 1,-1 1,-1 2,-2 1,-2 2,-4 4,-6 4,-7 6,-12 6,-20 0,-3 1,-6 2,-8l7 5c9,6 15,11 27,14 9,2 24,4 33,0 9,-3 17,-10 24,-17 12,-11 15,-16 22,-33 5,-10 7,-11 6,-22 -8,0 -6,1 -11,1 -1,4 -3,7 -4,10l-4 10c-2,3 -3,5 -5,8 -2,3 -4,6 -6,9 -4,5 -8,9 -13,13l-8 6c-2,1 -7,2 -10,3 -13,1 -20,-2 -31,-7 -5,-1 -15,-3 -17,-8 -3,-5 -1,-3 -6,-9 -1,-2 -2,-2 -3,-3 -3,-4 -7,-8 -8,-13 13,8 28,-3 26,-21 -1,-8 -5,-14 -10,-17 -5,-3 -12,-3 -17,0 -2,1 -1,1 -3,1 0,-6 0,-8 -2,-13 -1,-3 -3,-6 -5,-9 -2,-3 -5,-5 -9,-5 -12,0 -26,14 -15,34 2,3 5,5 5,9 -1,0 -3,2 -4,2 -2,1 -3,1 -5,2 -2,3 -3,7 -3,11 -1,7 1,15 5,19l0 1c11,12 23,9 29,-6 0,-2 1,-4 1,-5l1 0c0,4 1,7 1,12 0,2 1,3 1,6 -1,6 -1,12 -3,18 0,1 -1,3 -1,4l-2 5c-6,11 -16,21 -28,23 -8,1 -11,-3 -19,-5 -3,-1 -6,0 -9,-3 -3,-2 -4,-3 -8,-4 -1,0 -3,-1 -5,-1 -1,-1 -2,-1 -4,-2 -2,-1 -5,-3 -8,-5 -6,-4 -11,-9 -16,-14l-4 -3c-6,-7 -17,-14 -5,-23 12,-9 21,-3 32,1 2,1 3,1 4,2 4,4 7,10 11,15 1,1 2,2 3,2 2,1 3,3 4,0 0,-8 0,-17 -2,-25 -3,-8 -10,-12 -15,-16 -1,-1 -3,-2 -4,-3 2,-4 6,-6 9,-9 4,-5 4,-7 4,-15 0,-3 0,-5 -1,-8 -1,-6 -1,-12 1,-17 1,-2 2,-5 2,-8 -4,-2 -8,2 -12,3 -8,3 -24,-1 -30,4 -4,2 -6,6 -9,9 -7,-5 -3,-15 -17,-12 -8,1 -21,-3 -21,7 4,3 7,-1 10,4 4,5 7,9 9,16 1,8 -1,11 -2,17 -2,5 -2,13 -7,15 -4,1 -8,-5 -10,-9 -1,-2 -2,-4 -3,-7 -2,-6 -5,-20 -4,-26 0,-5 0,-5 2,-8 1,-3 2,-5 3,-8 -11,-6 -25,4 -25,16 -12,0 -11,-18 -40,-4 -8,4 -12,5 -20,7 -6,1 -17,3 -17,11 2,0 4,2 6,2 3,1 6,0 9,1 5,1 10,2 14,4l18 6c1,0 2,1 3,1 1,0 2,1 3,2 2,0 2,0 4,1 2,1 4,2 7,3 3,0 5,0 7,2l20 13c3,2 13,9 15,10 3,-3 3,-5 8,-7 5,-2 11,0 15,5 3,4 6,12 3,17 0,-3 0,-4 -1,-7 -5,-22 -24,-12 -27,-3 -1,6 2,14 5,17 3,5 8,10 14,8 3,-1 5,-5 8,-6l4 5c3,6 8,10 13,15l0 1c2,1 3,3 5,5l12 12c1,1 1,1 2,3 1,1 1,1 3,2 1,1 1,2 2,3l5 5c3,2 15,16 18,20 3,3 7,8 9,11 -3,0 -5,2 -7,3l-6 3c-3,2 -2,6 -2,9 0,9 3,9 10,9 9,0 7,-1 15,-4 8,-4 14,-4 23,-6 5,-1 9,-4 14,-5 8,-2 17,0 25,-3 2,-1 5,-2 7,-3 4,-1 12,0 17,-1 5,-1 11,-2 16,-3 6,-1 11,-2 16,-3l18 -1c6,-1 12,0 18,-1l18 0c13,0 44,-2 55,0 5,0 13,-1 18,0 4,1 9,0 13,0l9 1c2,0 3,0 5,0 1,0 3,0 4,0 2,0 3,1 5,1 21,-1 36,7 54,7 4,0 3,-1 8,0 6,0 11,5 19,5l9 0c5,1 10,3 15,5 2,0 5,1 7,2 6,1 11,2 16,3 11,4 22,12 28,3 1,-2 2,-4 2,-8 0,-9 -9,-9 -14,-13 -1,0 -1,0 -2,-1 0,-1 3,-3 4,-5l7 -8c1,-1 1,-1 1,-1l13 -14c1,-1 1,-1 2,-2l5 -5c4,-5 14,-14 19,-20 2,-2 3,-3 5,-5 3,-4 6,-7 9,-11 1,-1 3,-3 4,-5 1,-2 3,-3 4,-5 7,5 9,11 18,2 3,-2 5,-5 7,-8 1,-3 3,-9 2,-12 -1,-4 -4,-6 -6,-8 -8,-5 -14,-5 -19,4 -1,2 -4,7 -4,12l0 0c0,-8 0,-8 2,-13 3,-8 11,-11 18,-8 2,2 4,3 6,5 2,3 3,1 6,-2 29,-20 29,-19 60,-30 10,-4 21,-7 32,-9 2,-1 4,0 6,-1 6,-1 3,-7 -2,-8 -1,-1 -2,-1 -3,-1 -1,-1 -2,-1 -4,-1 -2,-1 -4,-1 -6,-2 -13,-2 -31,-17 -43,-11 -4,2 -7,4 -11,6 -2,2 -3,2 -6,2 0,-7 -3,-12 -7,-15 -4,-3 -11,-4 -16,-1 0,8 5,5 4,23 -1,10 -5,26 -11,32 -2,2 -6,5 -8,2 -3,-3 -6,-17 -7,-22 -2,-15 10,-27 13,-28 2,0 5,1 6,-1 0,-1 -1,-4 -2,-5 -3,-3 -11,-2 -16,-2 -3,0 -4,-1 -6,-1 -10,-1 -8,11 -14,13 -3,-3 -4,-7 -8,-10 -10,-5 -25,2 -37,-6 -3,-2 -3,-1 -6,0 0,5 0,4 2,8 3,8 0,17 0,26 -1,12 3,13 9,18 1,2 2,4 3,6 -6,5 -12,6 -16,15 -5,10 -5,30 -3,29 6,0 13,-16 21,-20 22,-13 42,1 35,12 -5,10 -25,26 -34,30 -4,2 -8,4 -13,7 -6,2 -24,9 -31,10 -5,1 -10,-2 -15,-5 -4,-3 -7,-6 -11,-10 -5,-6 -8,-15 -10,-23 -1,-8 -1,-17 0,-25 0,-2 1,-4 1,-5 1,2 6,23 21,18 11,-3 21,-27 11,-37 -1,-2 -6,-5 -8,-5 0,-4 4,-7 5,-10 1,-2 4,-7 4,-11 1,-14 -15,-27 -25,-20 -6,4 -12,17 -10,26 -4,0 -9,-8 -19,-3 -15,6 -14,34 0,40 7,4 9,1 15,-1l-5 9c-1,1 -1,1 -2,2l-2 4c-1,0 -1,1 -2,2 -1,1 -2,2 -3,4 0,1 -2,2 -3,3 -2,3 -4,4 -7,6 -6,3 -13,5 -19,7 -7,2 -14,4 -22,3 -7,-1 -12,-5 -18,-9 -4,-3 -10,-8 -13,-13 -5,-7 -7,-10 -11,-17 -2,-5 -5,-10 -6,-15 -1,-1 -2,-3 -2,-5 -4,0 -6,-2 -11,-1 -3,7 3,16 5,22 2,4 3,7 4,11 2,4 5,9 9,12l18 18c1,1 5,3 8,4 5,4 9,8 18,8 13,0 31,-2 42,-11 4,-3 10,-10 16,-10 0,14 4,22 11,32 1,2 2,4 4,5 3,5 3,6 9,8 8,4 17,6 26,6 9,1 22,-1 27,-5 0,2 -1,2 -3,3 -3,2 -6,3 -8,5 -1,0 -2,0 -2,2 0,5 1,9 -3,13 -3,3 -7,4 -7,10 -3,0 -16,-5 -20,-6 -1,0 -2,0 -4,-1 -25,-6 -68,-14 -93,-16 -12,-1 -23,-3 -35,-3l-20 -1c-2,-1 -5,0 -7,0 -17,-1 -34,-1 -50,-1 -3,0 -5,0 -7,0 -5,0 -10,0 -14,1l-47 4c-6,1 -14,1 -20,2 -2,1 -5,1 -7,1 -17,2 -52,9 -68,13 -7,2 -14,4 -20,6 -1,0 -2,1 -4,1 2,-3 1,-5 -1,-6 -3,-1 -3,-2 -5,-4 -1,-1 -3,-4 -3,-6 -1,-3 -1,-5 -1,-8 0,-3 -10,-5 -12,-9z"/>
   <path class="fil0" d="M383 582l1 0 0 2 -1 0 0 -2zm-16 2l0 0zm-11 -3l1 0 0 2 -1 0 0 -2zm16 -2l1 0 0 3 -1 0 0 -3zm31 2c0,-1 1,-2 1,0 0,0 0,1 -1,0zm-36 3c0,-2 0,-2 -1,-3 1,0 2,1 1,3zm0 -7l0 0c0,-5 0,-7 0,-11l1 0c0,4 -1,6 -1,11zm-84 -9l1 0 1 2c-2,0 -1,0 -2,-2zm6 1c-1,-1 -1,-1 -1,-3l1 0c0,2 0,1 0,3zm63 -5l0 2 -1 0c0,0 0,-1 0,-1 1,-1 0,-1 1,-1zm-59 2l0 0zm59 -2l0 0zm-59 2c1,-3 2,-3 4,-3 2,-1 3,-1 5,-2 19,-5 36,-8 55,-10 8,-1 16,-1 25,-2l24 -2c5,0 12,-1 18,-1 6,0 12,-1 18,-1 3,0 4,0 6,0l20 0c2,0 3,-1 6,-1 5,1 13,1 19,1l48 3c4,0 8,1 12,1 16,-1 48,4 64,7 5,1 22,4 25,5 1,1 1,1 2,2 6,3 15,2 19,9 -3,4 -5,4 -10,5 -9,1 -14,4 -23,5 -2,0 -5,0 -7,0l-33 3c-6,0 -14,0 -20,0 -3,0 -4,1 -7,1 -2,0 -5,0 -7,0 -3,0 -4,0 -7,0l-13 1c-5,0 -10,0 -14,0 -3,0 -4,0 -7,0 -2,0 -5,0 -7,0 -3,0 -4,1 -6,1 -2,0 -5,-1 -7,0 -9,1 -18,0 -27,1 -2,0 -5,0 -7,1 -2,0 -5,-1 -6,0 0,-4 -1,-6 -2,-10 0,-1 0,-2 -1,-3 -2,0 -3,0 -5,0 -2,2 -2,1 -2,5l0 0c0,-3 0,-5 -2,-6 -1,0 -2,0 -2,2 0,2 0,4 0,6 -2,-2 -1,-6 -3,-9l-2 0c-1,3 0,4 1,7 -2,-1 -4,-3 -4,1l-1 0c-1,-6 -6,-3 -6,1 -1,-1 -1,-2 -3,-3 -1,0 -2,1 -3,3 -1,-2 0,-2 -1,-3 -1,-2 -3,-2 -4,1 0,0 -1,2 -1,2l-1 0c0,-4 0,-4 1,-9 0,-2 1,-6 -2,-7 -3,3 -2,10 -2,15 0,0 0,0 -1,-1 -1,-5 3,-15 -1,-19 -2,1 -3,4 -3,7 -1,3 0,7 -2,8 0,-4 -1,-4 1,-9 1,-3 1,-4 -1,-7 -4,1 -3,9 -4,14 -2,-5 4,-14 -1,-18 -3,2 -3,6 -3,10l-1 13c-1,-2 -1,-4 0,-6 0,-2 0,-4 0,-6 0,-4 0,-7 -1,-10 -1,-1 0,-1 -2,-1 0,4 -1,3 -2,11 0,2 0,4 0,6 0,3 0,4 0,7l-1 0c0,-5 0,-10 1,-15 0,-7 -1,-8 -2,-13 -3,3 -2,10 -3,15 0,2 0,3 0,6l-1 0c0,-8 2,-15 -1,-22 -1,1 -2,3 -3,5 -1,5 0,11 0,16 0,4 0,6 0,9l-1 -8c0,-7 1,-12 0,-19 0,-3 0,-2 0,-4 -4,0 -5,5 -5,8l1 7c0,2 0,5 -1,6 0,-5 -1,-4 0,-11 0,-3 0,-5 -1,-8 0,-1 0,-2 -1,-2l-3 3c0,0 0,0 0,1 0,-2 -1,-3 -1,-3 -2,0 -3,1 -4,3 -1,4 0,10 0,15 0,3 -1,4 -1,7l0 -22c0,-2 0,-3 -1,-3 -3,0 -3,3 -4,5 0,-3 0,-7 -4,-4 -1,0 0,0 -1,1l-1 2c0,-1 0,-3 -1,-3 -2,-1 -3,1 -3,2l-1 -1c-1,-1 -3,0 -4,1 -2,0 -3,-1 -5,0 -2,0 -1,0 -1,1 -2,0 -2,0 -2,-1 -2,0 -3,0 -3,2 -1,-1 -3,-2 -4,0 -2,1 -1,0 -1,2 -2,-1 -5,-3 -6,1l-1 0c0,-2 0,-1 0,-2 -2,0 -4,1 -5,1 -2,1 -4,2 -6,1 -4,0 -3,2 -5,2 -2,0 -3,-2 -4,3 -3,-2 -3,-2 -6,0zm-41 -3c0,3 2,7 4,9 0,1 1,1 1,1 7,8 23,11 33,13 4,1 8,1 12,2 4,1 9,1 14,1l62 3c3,0 5,1 7,1l29 0c5,1 79,1 87,1 5,0 9,0 14,0 4,0 10,0 14,-1l41 -1c3,0 5,0 7,0 3,0 4,-1 7,-1 5,0 9,0 14,0l14 -1c2,0 4,0 7,0 3,0 4,0 7,0 6,0 20,-2 26,-3 12,-3 37,-9 37,-24 0,-14 -19,-20 -28,-23 -5,-1 -9,-3 -14,-4 -17,-4 -34,-9 -53,-11l-73 -7c-3,0 -5,-1 -7,-1 -3,0 -6,0 -9,0l-15 -1c-5,0 -10,-1 -15,-1 0,2 0,3 0,5 -1,3 0,10 -5,9 -5,-2 -2,-8 -4,-12 -1,-3 -4,-1 -6,-1 -1,0 -2,0 -3,1 -2,0 -6,0 -8,0 -5,1 -11,-1 -15,0 -5,1 -11,0 -16,1 -3,0 -2,0 -7,0 -8,0 -58,5 -65,7 -14,2 -27,5 -40,9 -4,1 -9,2 -13,3 -11,2 -41,8 -41,26z"/>
   <path class="fil0" d="M451 112c0,3 -2,6 -3,9 -5,-3 -5,0 -14,-10 -2,-2 -3,-4 -5,-6 -2,-3 -4,-4 -6,-6 -2,3 -5,5 -7,7l-12 15c-1,1 -2,2 -3,4 -2,2 -3,1 -3,4 7,1 21,12 26,18 15,18 22,40 26,65l1 16c0,2 1,4 1,6 0,5 -3,13 1,20 6,0 12,1 18,1 6,0 11,-1 16,-1 2,-3 3,-11 3,-14 -1,-17 0,-19 3,-36l3 -16c1,-3 2,-5 2,-8 4,-12 13,-27 22,-36 5,-5 9,-8 16,-11 1,-1 5,-3 6,-3 0,-3 0,-3 -1,-5l-6 -7c-3,-2 -7,-7 -9,-10 -1,-2 -7,-10 -10,-8l-6 7c-5,7 -10,13 -18,13 -2,-6 -3,-10 0,-16 2,-3 2,-4 4,-6 2,-3 8,-6 12,-7 0,-5 -15,-25 -20,-35 -3,-6 -5,-10 -7,-17 -2,-5 -3,-8 -4,-13 -2,-7 -4,-15 -6,-23 0,-2 0,-2 -1,-3 0,3 -1,7 -2,10 -1,7 -2,10 -4,17 -2,5 -4,13 -7,19 -5,12 -13,25 -20,36 -1,3 -3,5 -4,7 -1,5 2,-1 11,8 3,3 7,10 7,15z"/>
   <path class="fil0" d="M395 272c0,4 -1,9 -1,13 0,3 0,4 0,7 1,2 1,4 2,6l25 0c-4,0 -11,0 -11,7 0,2 2,1 4,2 7,1 15,0 22,1 2,0 3,-1 6,-1 4,0 8,1 12,1l-2 1c-1,1 -1,1 -2,6 -2,14 -1,16 -8,29 -7,13 -10,13 -16,20 -2,1 -4,5 -5,8 7,2 14,2 20,-2 10,-6 13,-20 18,-28l0 -1c0,-1 0,0 0,-1 0,16 -10,17 -10,27 0,6 -1,8 5,13 1,1 2,2 3,3l3 3c0,0 0,0 0,0l0 1c3,3 9,29 16,9 2,-4 3,-8 5,-10 6,-7 18,-12 6,-30 -5,-7 -6,-9 -4,-16 0,1 0,2 1,3l2 9c2,4 4,6 6,10 4,6 10,11 19,11 3,0 7,-1 9,-2 -1,-3 -3,-5 -5,-7 -1,-1 -2,-2 -3,-3l-4 -5c-1,-1 -1,-1 -2,-1 -2,-2 -6,-9 -7,-12 -5,-8 -7,-18 -9,-28 0,-6 0,-7 -5,-7l35 0c3,0 7,-1 11,-1 0,-9 -4,-9 -15,-9l0 0c5,0 27,1 30,-1 1,-1 0,-20 0,-24 0,-2 -1,-1 -3,-1 -23,0 -48,0 -70,0 -13,0 -27,0 -40,0l-36 -1c-2,0 -1,0 -2,1z"/>
   <path class="fil0" d="M405 452l0 0zm-128 19c4,-4 26,-5 31,-6 12,-3 11,-6 31,-6 3,0 5,-1 8,-1 24,-4 25,-5 50,-5 3,0 5,-1 8,-1 -2,3 -7,13 -1,15 8,4 18,0 15,-10 -1,-3 -2,-4 -3,-6 5,0 8,1 13,1 10,-2 22,-3 32,-3 2,0 3,1 6,1 -1,2 -11,9 -14,11 -11,6 -22,11 -35,13 -3,0 -7,0 -10,1 -3,0 -6,2 -7,5 8,0 14,2 20,3 6,2 12,4 19,5 6,2 13,2 18,6 3,3 8,11 13,11 5,-1 9,-8 13,-11 5,-4 11,-5 18,-6 13,-2 24,-7 38,-9l0 0c-2,-1 -2,-2 -4,-3 -4,-2 -9,-2 -14,-3 -10,-1 -22,-5 -31,-10 -5,-3 -13,-7 -16,-13 9,-3 32,2 45,2 3,0 4,-1 7,-1 -1,2 -1,2 -2,2 0,1 0,1 -1,1 -1,2 -2,5 -2,8 0,5 3,6 8,6 3,1 9,0 9,-4 1,-4 -2,-9 -3,-12 2,0 2,0 4,0 1,0 3,0 4,0 2,0 3,1 5,1 1,0 3,0 4,0 11,1 22,1 33,3l31 5c2,0 44,8 46,10 -5,0 -8,4 -11,7 -3,3 -7,5 -11,7 -2,1 -5,2 -7,2 -7,0 -17,-2 -21,5 3,3 7,5 11,7 5,2 9,4 13,6 8,6 8,12 13,16 2,2 4,3 6,4 1,-7 6,-11 11,-13 4,-2 9,-3 13,-6 1,-1 0,-1 2,-2 -1,-2 -8,-13 -10,-15 0,-2 -1,-3 -2,-4 -2,-4 -5,-10 -6,-14 2,0 5,1 7,1 2,1 3,3 5,3 5,0 7,-7 0,-8 -5,-1 -17,-5 -25,-7 -15,-4 -38,-7 -54,-10 -15,-3 -39,-7 -56,-7 -9,0 -21,1 -30,-1 -6,-1 -6,-2 -13,-1 -9,1 -30,2 -37,1 -3,0 -5,0 -8,0 -13,-1 -17,0 -30,1 -9,1 -23,-1 -30,0 -3,0 -9,0 -14,1 -14,2 -27,4 -41,7 -14,3 -27,4 -41,6 -8,2 -16,5 -24,8l-7 2c-3,0 -3,0 -5,3 0,2 1,4 2,5 4,3 11,-3 14,-4z"/>
   <path class="fil0" d="M347 200c0,19 6,32 16,46 2,2 3,4 5,7 2,2 3,2 6,2 2,0 0,-5 0,-8 -4,-12 -13,-25 -2,-41 8,-12 20,-7 30,-2l7 5c6,5 10,15 12,24 1,3 2,6 3,10 0,3 2,7 2,10 6,0 7,2 14,0 0,-17 -1,-18 -5,-35 -3,-17 -5,-22 -14,-35 -7,-9 -11,-19 -22,-26 -12,-6 -26,-4 -37,5 -2,2 -3,3 -5,5 -7,9 -10,20 -10,33z"/>
   <path class="fil0" d="M501 250c0,4 0,4 2,4 2,0 10,0 11,-1 1,-1 3,-8 3,-11 5,-17 10,-34 27,-41 9,-3 18,-5 24,5 2,3 3,4 4,7 2,5 2,8 2,14 0,7 -4,13 -7,20 0,2 -1,4 -1,8 6,1 9,-5 12,-9 8,-12 13,-21 15,-36l1 -10 -1 -10c0,-3 -1,-6 -2,-9 -8,-29 -38,-33 -54,-20 -9,8 -21,28 -26,40 -6,14 -10,32 -10,49z"/>
   <path class="fil0" d="M273 420c-2,0 -10,-3 -13,1 -1,1 -2,4 -2,6 0,7 8,12 13,8 3,-2 4,-4 7,-5 6,-1 15,1 29,-6 16,-9 7,-15 19,-8 3,1 12,4 14,1 1,-1 2,-7 3,-7 1,0 5,1 6,2 10,2 17,0 26,0 4,0 5,1 9,1 9,-2 17,-4 24,-10 2,-2 4,-6 8,-8 2,-1 3,-1 4,-1 0,3 -1,4 1,9 0,2 1,4 2,5 1,0 4,1 5,1 2,1 8,2 10,0 5,-4 11,-24 -3,-27 -8,-2 -15,2 -21,6 -6,4 -13,10 -20,10 0,-2 3,-5 5,-8 1,-2 3,-5 3,-9 -7,1 -13,13 -35,15l-6 1 -12 -2c-4,-1 -7,-3 -10,-5l-16 -12c0,0 0,0 -1,-1 -2,0 -2,1 -2,3l-6 12c-3,6 -5,10 -9,14 -4,4 -9,7 -14,9 -3,1 -5,2 -8,3 -3,1 -8,2 -10,2z"/>
   <path class="fil0" d="M540 381c-1,0 -1,1 -1,2 0,7 7,9 8,15 -4,0 -7,-2 -10,-3 -8,-5 -17,-13 -26,-13 -3,0 -10,1 -11,4 -4,5 -2,18 2,23 3,3 12,1 15,0 1,-1 1,-1 2,-2 1,-2 2,-10 2,-13 3,0 7,4 9,6 17,14 28,13 48,13 5,0 10,-1 15,-2 2,0 3,-1 5,-1 3,6 0,10 10,8 2,0 4,-1 6,-2 10,-5 4,-3 17,5 4,3 9,5 13,7 13,3 18,0 23,4 4,4 3,4 8,4 5,0 10,-7 6,-16 -10,0 -27,-3 -36,-7 -4,-2 -9,-6 -11,-9 -7,-10 -7,-11 -12,-23 -2,-5 -2,-7 -10,2 -8,9 -26,14 -37,13 -2,0 -4,0 -6,0 -7,-2 -15,-4 -20,-9 -2,-2 -6,-6 -9,-6z"/>
   <path class="fil0" d="M286 525l-6 1c-2,1 -4,2 -6,3 -3,1 -8,5 -8,9 7,5 10,0 19,-4 1,0 2,0 3,-1 1,0 2,0 4,-1 7,-2 40,-9 50,-10 3,-1 5,-1 8,-1 5,0 10,-1 15,-3 5,-2 16,-4 22,-4 3,0 6,1 8,0 5,-1 23,0 30,0 2,0 2,0 4,0 12,-1 21,-3 31,-3 3,-1 6,0 9,-1 2,0 35,3 40,3 4,1 11,1 16,1 3,0 5,0 8,0 13,0 28,0 40,4 2,0 5,1 7,1 4,1 15,2 23,3 13,4 17,4 30,5 13,2 12,5 20,7 2,0 5,1 7,1 5,2 9,7 12,5 4,-2 4,-8 -4,-11 -12,-4 -36,-10 -49,-12l-8 -1c2,0 3,0 4,-1 5,-1 3,0 5,-4 0,-1 0,-2 1,-3 0,-4 1,-6 -1,-8 -7,-8 -21,-4 -14,10l3 6 -19 -3c-7,-1 -18,-2 -24,-3 -10,-2 -47,-4 -57,-4l-16 0c-2,0 -3,0 -6,0 -18,0 -41,-1 -59,0l-10 1c-2,0 -4,0 -6,0l-15 1c-4,1 -10,0 -16,1 -3,1 -6,1 -10,1 -10,2 -16,2 -29,5 -5,1 -12,3 -19,3 -11,-1 -6,-1 -18,3 -5,1 -10,2 -14,3 -2,0 -3,1 -5,1z"/>
   <path class="fil0" d="M286 525c4,-4 3,1 9,-10 2,-2 3,-4 4,-6 8,-8 26,-12 29,-18 0,-1 -3,-2 -5,-3 -6,-2 -14,1 -24,-3 -11,-6 -15,-14 -22,-14 -1,2 -2,1 -2,4 -1,2 -1,3 -2,5 -4,11 -7,9 -14,24 1,1 1,1 2,2 1,0 1,0 2,1 1,1 2,1 4,2 2,1 5,2 7,3 3,2 5,3 7,5 2,1 2,2 3,4 1,3 1,3 2,4z"/>
   <path class="fil0" d="M414 262c1,2 2,4 4,5 1,1 4,2 6,2 7,2 16,0 23,0 11,0 70,1 72,0 0,0 2,-1 2,-1 1,-1 2,-1 3,-2 2,-1 3,-2 4,-5 -3,-3 -4,-6 -13,-6 -7,0 -12,2 -19,2 -9,0 -17,-1 -26,-1 -9,0 -17,1 -26,1 -9,0 -28,-7 -30,5z"/>
   <path class="fil0" d="M339 484c0,6 0,12 5,15l3 -4c3,-3 6,-5 9,-8 1,-2 3,-2 4,-5 -3,-1 -5,-1 -8,-2 -1,0 -3,-1 -4,-1 -2,-2 -1,-5 -1,-6l8 4c2,1 8,4 10,3 4,-3 12,-10 16,-10 1,0 1,1 1,1 -1,2 -5,5 -6,5l-9 7c1,0 1,1 3,1l6 3c1,0 2,1 3,1l12 5c1,-2 2,-1 2,-5 0,-5 -1,-9 -1,-11 0,-4 1,-2 -4,-7 -4,-5 1,-5 -7,-5 -8,0 -13,2 -20,2 -2,0 -4,1 -6,1 -7,1 -8,-2 -12,4 -2,2 -4,7 -4,12z"/>
   <path class="fil0" d="M548 483c0,15 4,8 7,7 7,-3 15,-3 18,-8 -1,-1 -1,-2 -3,-3 -1,-1 -3,-2 -4,-2 -3,-1 -6,-3 -7,-5 1,-1 0,-1 2,-1 3,0 6,2 8,4 10,8 8,4 17,0 3,-1 4,-2 9,-2 -1,4 -2,5 -6,6l-8 2c0,4 2,3 4,4 2,1 2,1 3,3 0,0 1,1 2,2l6 7c1,1 1,2 2,2 6,-5 4,-30 -4,-31 -3,0 -5,0 -8,0l-31 -3c-1,4 -3,4 -5,8 -1,2 -2,6 -2,10z"/>
   <path class="fil0" d="M552 497c3,0 2,1 9,2 4,1 7,1 11,2 3,0 7,1 10,2l12 0c0,-7 -8,-12 -12,-15 -2,-1 -3,-3 -5,-3 -1,2 -4,3 -5,4 -5,2 -12,4 -18,6 -1,0 -2,0 -2,2z"/>
   <path class="fil0" d="M346 502c5,3 11,1 15,0 5,-1 9,-2 14,-2 2,0 4,0 6,0 7,-1 6,-3 8,-3 0,-5 -4,-2 -12,-5 -4,-2 -8,-4 -12,-6 -1,0 -2,-1 -3,0 0,0 -1,1 -1,1 -3,3 -7,5 -11,9 -2,3 -2,4 -4,6z"/>
   <path class="fil0" d="M319 505c0,3 2,4 2,6 1,2 0,1 1,2 1,1 6,3 8,3 3,0 4,-1 5,-4 1,-3 2,-5 2,-8 0,-13 -18,-8 -18,1z"/>
   <path class="fil0" d="M616 483c5,0 5,-2 6,-4 1,-3 2,-5 2,-8 0,-12 -17,-9 -17,2 0,5 4,10 9,10z"/>
   <path class="fil0" d="M317 472c0,4 3,6 3,10 3,1 2,1 5,1 10,0 12,-19 1,-19 -4,0 -9,1 -9,8z"/>
   <path class="fil0" d="M401 492c0,2 0,5 1,6 4,4 16,1 16,-4 0,-3 0,-5 -2,-7 -5,-6 -15,-2 -15,5z"/>
   <path class="fil0" d="M540 496c0,-8 0,-12 -9,-12 -3,0 -6,2 -7,4 -2,3 -2,8 0,9 2,2 16,5 16,-1z"/>
   <path class="fil1" d="M21 916c0,5 0,8 -3,11l-11 12c-1,1 -2,3 -2,4 0,1 1,2 2,2l56 0c1,0 2,-1 2,-2 0,-1 -1,-3 -2,-4l-11 -12c-3,-3 -4,-6 -4,-11l0 -53 13 -44 1 0 19 94c1,4 1,8 -1,11l-9 15c-1,2 -3,3 -3,4 0,2 1,2 2,2l53 0c1,0 2,0 2,-2 0,-1 -1,-3 -3,-5l-12 -13c-2,-2 -3,-6 -4,-10l-31 -145 27 -96c2,-7 5,-13 8,-16l12 -14c1,-2 3,-4 3,-5 0,-2 -1,-2 -3,-2l-51 0c-2,0 -3,0 -3,2 0,1 1,2 3,4l11 11c2,3 3,6 2,11l-35 121 -1 0 0 -120c0,-5 1,-8 4,-11l11 -12c1,-1 2,-3 2,-4 0,-1 -1,-2 -2,-2l-56 0c-1,0 -2,1 -2,2 0,1 1,3 3,4l10 12c3,3 3,6 3,11l0 250zm143 -200c-22,0 -41,24 -41,105 0,102 19,124 41,124 23,0 42,-22 42,-124 0,-81 -19,-105 -42,-105zm0 212c-9,0 -14,-14 -14,-107 0,-72 5,-87 14,-87 10,0 15,15 15,87 0,93 -5,107 -15,107zm91 -154c0,-21 6,-38 17,-38 7,0 14,4 18,15 1,2 1,4 3,4 1,0 1,-2 1,-4 0,-13 -7,-35 -19,-35 -8,0 -14,9 -19,17l-1 0 0 -14c0,-2 -1,-3 -2,-3l-34 0c-1,0 -2,1 -2,2 0,1 1,2 2,3l10 12c1,1 1,2 1,3l0 187c0,1 0,3 0,3l-11 15c-1,1 -2,2 -2,3 0,1 1,1 2,1l48 0c1,0 2,0 2,-1 0,-1 -1,-2 -2,-3l-12 -15c0,0 0,-2 0,-3l0 -149zm87 -58c-23,0 -42,24 -42,105 0,102 19,124 42,124 23,0 42,-22 42,-124 0,-81 -19,-105 -42,-105zm0 212c-9,0 -14,-14 -14,-107 0,-72 5,-87 14,-87 9,0 14,15 14,87 0,93 -5,107 -14,107zm90 -289c0,-2 0,-2 -1,-2l-34 0c-1,0 -2,0 -2,1 0,1 0,2 1,3l11 12c0,1 1,2 1,3l0 267c0,1 0,3 -1,3l-11 15c-1,1 -1,2 -1,3 0,1 1,1 2,1l46 0c2,0 2,0 2,-1 0,-1 0,-2 -1,-3l-11 -15c-1,0 -1,-2 -1,-3l0 -284zm22 -2c-2,0 -3,1 -3,2 0,1 2,2 3,4l9 12c2,3 3,6 3,11l0 250c0,5 -1,8 -3,11l-9 12c-1,1 -3,3 -3,4 0,1 1,2 3,2l43 0c1,0 2,-1 2,-2 0,-1 -1,-3 -2,-4l-8 -11c-2,-4 -2,-7 -2,-12l0 -200 0 0 29 226c0,2 1,3 2,3l8 0c1,0 2,-1 2,-3l27 -226 1 0 0 200c0,5 0,8 -3,12l-7 11c-1,1 -2,3 -2,4 0,1 0,2 2,2l49 0c2,0 2,-1 2,-2 0,-1 -1,-3 -2,-4l-9 -12c-2,-3 -3,-6 -3,-11l0 -250c0,-5 1,-8 3,-11l9 -12c1,-2 2,-3 2,-4 0,-1 0,-2 -2,-2l-44 0c-2,0 -4,2 -4,7l-21 178 -1 0 -23 -178c-1,-5 -2,-7 -5,-7l-43 0zm182 187l48 0c2,0 3,-2 3,-5l0 -25c0,-60 -18,-78 -38,-78 -25,0 -40,37 -40,100 0,92 13,129 45,129 17,0 28,-16 32,-36 1,-2 0,-3 -1,-3 -1,0 -1,1 -2,2 -7,13 -13,20 -25,20 -16,0 -22,-20 -22,-72l0 -32zm0 -15l0 -41c0,-22 4,-34 13,-34 8,0 13,12 13,34l0 41 -26 0zm75 134c0,1 0,2 1,2 1,0 2,0 3,-1l17 -14 0 0c7,8 17,15 28,15 15,0 32,-10 32,-126 0,-92 -17,-103 -32,-103 -11,0 -18,7 -24,15l0 0 0 -92c0,-2 -1,-2 -3,-2l-33 0c-2,0 -2,0 -2,1 0,1 0,2 1,3l10 10c1,0 2,2 2,3l0 289zm25 -178c0,-20 10,-31 15,-31 9,0 13,9 13,85 0,98 -3,109 -13,109 -8,0 -15,-11 -15,-28l0 -135zm102 59l47 0c3,0 3,-2 3,-5l0 -25c0,-60 -17,-78 -38,-78 -24,0 -40,37 -40,100 0,92 13,129 46,129 17,0 28,-16 32,-36 0,-2 0,-3 -1,-3 -1,0 -2,1 -3,2 -7,13 -13,20 -24,20 -16,0 -22,-20 -22,-72l0 -32zm0 -15l0 -41c0,-22 3,-34 12,-34 9,0 14,12 14,34l0 41 -26 0zm99 -170c0,-2 -1,-2 -2,-2l-34 0c-1,0 -2,0 -2,1 0,1 1,2 2,3l10 12c1,1 1,2 1,3l0 267c0,1 0,3 0,3l-11 15c-1,1 -2,2 -2,3 0,1 1,1 2,1l47 0c1,0 2,0 2,-1 0,-1 -1,-2 -1,-3l-11 -15c-1,0 -1,-2 -1,-3l0 -284z"/>
  </g>
 </g>
</svg>
